<svg width="16" height="16" viewBox="0 0 16 16" fill="none" xmlns="http://www.w3.org/2000/svg">
<path d="M14.1818 1.82422C14.0603 1.70136 13.9156 1.6039 13.7561 1.5375C13.5967 1.47111 13.4255 1.43712 13.2528 1.4375H9.65132C9.41507 1.43794 9.18853 1.53153 9.02085 1.69795L1.82114 8.8962C1.57547 9.14237 1.4375 9.47595 1.4375 9.82374C1.4375 10.1715 1.57547 10.5051 1.82114 10.7513L5.24888 14.179C5.49511 14.4248 5.8288 14.5628 6.17671 14.5628C6.52461 14.5628 6.8583 14.4248 7.10454 14.179L14.3013 6.9837C14.4681 6.81629 14.562 6.58981 14.5626 6.35352V2.75C14.5637 2.57815 14.5306 2.40779 14.4652 2.24886C14.3998 2.08992 14.3035 1.94558 14.1818 1.82422ZM11.7501 5.1875C11.5647 5.1875 11.3835 5.13252 11.2293 5.02951C11.0751 4.92649 10.955 4.78008 10.884 4.60877C10.8131 4.43746 10.7945 4.24896 10.8307 4.06711C10.8668 3.88525 10.9561 3.7182 11.0872 3.58709C11.2183 3.45598 11.3854 3.36669 11.5672 3.33052C11.7491 3.29434 11.9376 3.31291 12.1089 3.38387C12.2802 3.45482 12.4266 3.57499 12.5296 3.72916C12.6327 3.88333 12.6876 4.06458 12.6876 4.25C12.6876 4.49864 12.5889 4.7371 12.4131 4.91292C12.2372 5.08873 11.9988 5.1875 11.7501 5.1875Z" fill="#49B38D"/>
</svg>
