<svg width="202" height="206" viewBox="0 0 202 206" fill="none" xmlns="http://www.w3.org/2000/svg">
<path d="M62.3226 37.8026C63.6942 39.9086 65.1738 41.3774 66.2214 40.427C67.269 39.4766 65.0658 37.187 63.8022 36.323C63.0678 35.8586 61.005 35.6426 62.3226 37.8026Z" fill="#49B38D" fill-opacity="0.2"/>
<path d="M35.9812 36.2792C28.6264 41.798 29.5012 45.3512 37.3528 37.7588C38.7028 36.4628 37.6768 35.0156 35.9812 36.2792Z" fill="#49B38D" fill-opacity="0.2"/>
<path d="M42.8398 35.5452C43.9954 36.3876 43.9198 37.9644 43.9954 40.3836H55.3679C55.4759 37.9644 55.2706 36.2796 56.5343 35.5452C59.1643 34.0615 61.2108 31.7267 62.3372 28.925C63.4636 26.1233 63.6026 23.0217 62.7315 20.1304C61.8604 17.2391 60.0309 14.7306 57.5442 13.0175C55.0575 11.3045 52.0617 10.4889 49.0498 10.7052C36.025 11.4288 30.7654 26.9268 42.8398 35.5452Z" fill="#49B38D" fill-opacity="0.2"/>
<path d="M38.8328 100.129C47.5808 98.8651 62.4308 102.861 68.5436 96.3379C71.6 93.1735 70.8656 78.8419 70.7576 72.9451C70.5416 57.0367 65.2712 60.1903 53.3696 59.2507C52.106 59.1427 51.9008 56.5075 51.7928 53.7643C51.5768 50.3947 46.9436 51.7663 46.7276 55.1359C45.9932 65.9359 56.1128 64.5103 62.744 64.6183C65.984 64.7263 65.5952 70.2019 65.7032 72.8371C66.2216 87.4819 66.0164 91.6939 61.8044 93.7999C56.7392 96.3379 44.1032 93.3787 36.7268 95.2795C25.1384 98.2279 27.2444 115.508 27.4496 125.098C27.698 148.048 48.8876 127.787 49.6868 147.325C49.784 150.273 46.3064 179.779 51.8468 179.466C52.194 179.455 52.5356 179.375 52.8514 179.231C53.1673 179.086 53.4511 178.88 53.6861 178.624C53.9209 178.368 54.1027 178.069 54.2208 177.742C54.3389 177.416 54.391 177.069 54.374 176.722C53.8 167.632 53.8686 158.512 54.5792 149.431C55.6592 137.216 50.9936 132.68 36.4568 132.367C31.4024 132.259 32.666 121.2 32.4608 115.303C32.2556 109.406 32.4068 101.079 38.8328 100.129Z" fill="#49B38D" fill-opacity="0.2"/>
<path d="M50.2049 5.72493C50.3129 4.64493 50.5289 0.249331 49.0493 0.0333315C47.0513 -0.387868 47.7857 3.27333 48.3149 5.30373C48.6281 6.35133 50.1077 6.77253 50.2049 5.72493Z" fill="#49B38D" fill-opacity="0.2"/>
<path d="M65.907 7.56192C65.2482 6.48192 63.9954 7.10832 62.667 7.98312C61.3386 8.85792 60.3234 9.88391 60.6582 10.8235C61.1334 12.1627 66.5118 8.47992 65.907 7.56192Z" fill="#49B38D" fill-opacity="0.2"/>
<path d="M34.1985 6.88053C32.4057 7.40973 34.1985 9.51573 35.8833 10.5741C37.5681 11.6325 38.3889 11.0061 37.6761 9.82893C36.9633 8.65173 35.5593 6.35133 34.1985 6.88053Z" fill="#49B38D" fill-opacity="0.2"/>
<path d="M69.8061 29.5399C67.9053 29.1187 65.7993 27.9523 65.3781 28.9027C64.9569 30.3823 67.5381 31.0627 68.5425 31.2247C71.1777 31.8511 71.7069 29.9611 69.8061 29.5399Z" fill="#49B38D" fill-opacity="0.2"/>
<path d="M31.1428 20.3709C33.454 20.5761 32.4064 18.9993 31.24 18.4701C30.0736 17.9409 24.76 15.6297 24.1876 17.0985C23.4532 19.1073 28.8208 20.1549 31.1428 20.3709Z" fill="#49B38D" fill-opacity="0.2"/>
<path d="M30.9269 30.1669C32.2985 29.4325 32.5145 27.6397 30.3977 28.1689C28.2809 28.6981 26.8229 29.2489 26.4989 29.8537C25.5593 31.4305 29.5553 30.9013 30.9269 30.1669Z" fill="#49B38D" fill-opacity="0.2"/>
<path d="M72.6463 16.364C69.8923 17.2712 66.2419 18.362 66.6415 19.604C67.2031 21.386 72.3331 19.1828 74.4391 18.6536C76.5451 18.1244 75.3787 15.4784 72.6463 16.364Z" fill="#49B38D" fill-opacity="0.2"/>
<path d="M35.9802 140.585C31.455 140.693 22.815 142.377 22.2858 137.107C21.9726 133.737 22.1886 126.674 21.9726 122.775C21.7566 120.14 19.6506 121.307 19.5534 122.883C19.2757 127.73 19.3805 132.59 19.8666 137.42C21.8646 145.434 29.5866 142.82 36.1962 143.004C41.9958 143.22 41.1426 150.272 40.8294 154.495C40.6242 157.335 39.879 158.912 37.1466 159.128C33.9822 159.333 20.1798 160.208 11.4318 159.333C2.8566 158.556 3.5586 152.907 3.8718 107.396C22.869 106.91 22.815 110.291 21.8862 90.9586C35.4834 89.695 54.5454 93.1186 59.3946 88.6367C61.2954 86.8546 62.0298 82.1566 60.6582 71.8858C60.345 69.7798 58.2066 70.3091 58.239 71.7887C58.293 74.6291 59.5026 85.375 57.7098 86.7467C52.9686 90.2242 33.3774 86.7466 21.9942 88.4314C22.0252 85.7603 21.9207 83.0892 21.681 80.4287C21.465 78.2687 19.521 78.2687 19.521 80.0075C19.251 91.2826 21.2058 101.921 18.9918 104.124C17.199 105.495 12.0366 104.761 4.0338 104.977C3.8178 90.2242 3.8178 74.3159 3.2886 62.6195C3.0834 56.9279 5.8266 53.8715 12.1446 53.7635C25.4178 53.6663 39.1446 51.9815 39.2202 55.9775C39.6954 68.2247 39.609 67.8575 36.1638 68.3111C30.8934 68.9375 29.3166 68.6243 22.5774 68.8295C19.521 68.9375 18.8838 70.8382 21.735 71.1514C26.7894 71.7886 36.1638 70.8383 36.477 70.8383C43.0218 70.6763 41.9634 64.0883 41.9634 59.0339C41.9634 53.4503 40.1706 51.1391 35.6346 50.9231C31.9518 50.7071 21.0978 50.8151 12.0366 51.2363C2.3166 51.7655 0.556196 57.7163 0.761396 62.7275C1.3986 76.0007 0.869396 94.6522 1.1826 111.187C1.7118 147.151 -1.6794 160.986 11.1942 162.185C19.8731 162.656 28.5725 162.594 37.2438 162.001C41.985 161.58 43.3458 158.631 43.4538 155.791C43.7238 148.911 44.307 140.477 35.9802 140.585Z" fill="#1D1D1D"/>
<path d="M70.4421 108.444C74.9673 108.66 83.2941 109.189 83.4021 105.074C83.5101 98.8642 83.0889 95.0734 81.5121 95.8078C79.6977 96.715 81.5769 101.208 80.5617 104.556C79.4817 108.552 63.5949 101.597 63.0765 111.403C62.8847 114.196 63.1326 117.003 63.8109 119.719C64.1241 121.512 66.6513 121.879 66.1329 119.093C64.9449 113.228 64.4265 108.206 70.4421 108.444Z" fill="#1D1D1D"/>
<path d="M43.9943 29.1615C47.9039 29.4747 49.8587 20.5215 50.5283 23.1567C51.6083 25.9971 53.4767 27.3903 54.7403 27.2607C57.3755 26.9907 58.6391 21.8607 57.5807 21.0399C57.1595 20.6187 56.3171 21.0399 56.2199 21.5691C52.7315 31.2891 52.7531 15.4347 48.3143 21.2559C46.9427 23.1567 44.5235 30.9759 42.9143 24.8415C42.7091 24.3123 42.3959 24.0963 41.8343 24.4203C40.8299 24.8955 42.0935 28.9023 43.9943 29.1615Z" fill="#1D1D1D"/>
<path d="M63.1631 53.4506C67.3859 53.3426 71.1767 53.1374 76.0259 53.0294C76.7603 59.2502 74.9459 70.6226 75.7019 78.9494C76.2311 85.3754 78.0239 89.5874 84.5579 90.0086C86.9771 90.2246 97.4099 91.0886 101.514 90.0086C103.674 89.4794 102.983 87.233 100.574 87.5894C95.5631 88.097 90.5119 88.0603 85.5083 87.4814C74.7083 86.4662 78.9203 73.7654 78.6503 52.9214C116.699 52.133 112.217 54.7682 113.631 69.575C107.954 70.0502 102.246 70.0502 96.5675 69.575C94.1375 69.359 93.9323 69.359 93.8243 66.6266C93.7163 62.6198 93.9323 59.4554 92.6687 59.2502C90.7679 59.0342 91.2971 62.4038 91.2971 66.8102C91.2971 70.5038 92.1395 71.6594 96.3515 71.9726C102.138 72.4478 107.953 72.4478 113.739 71.9726C114.895 80.0834 112.584 84.3602 115.424 84.4034C118.481 84.4574 116.504 66.1838 116.267 62.177C116.061 55.2218 112.584 51.323 104.041 50.6858C97.4099 50.3726 70.3343 49.109 62.2235 51.0098C60.0095 51.5606 60.5279 53.5586 63.1631 53.4506Z" fill="#1D1D1D"/>
<path d="M61.9007 133.209C60.0215 120.843 41.2835 131.881 39.8795 123.09C39.1451 118.348 39.5663 115.724 39.5663 111.21C39.4583 103.833 49.4699 107.203 52.1051 106.468C53.6819 106.047 53.4767 104.47 51.6839 104.308C48.78 103.962 45.8474 103.926 42.9359 104.2C37.0391 104.416 36.7259 110.108 37.0391 116.005C37.3523 121.588 36.5099 129.699 43.9943 129.494C56.7383 129.073 59.7947 128.014 59.9027 142.033C59.9027 142.659 60.6371 142.875 61.3823 142.875C62.7431 142.8 62.4299 137 61.9007 133.209Z" fill="#1D1D1D"/>
<path d="M55.3667 40.3835H43.9943C42.9143 40.5995 43.5731 47.4467 46.2083 46.8635C47.5799 46.8635 46.1003 48.7535 49.6859 48.7535C53.6819 48.7535 52.1051 46.9607 53.2607 46.7555C56.0039 47.1335 56.4251 40.0703 55.3667 40.3835Z" fill="#1D1D1D"/>
<path d="M161.68 139.949C162.414 140.078 163.257 139.743 163.257 139.009C163.257 136.374 156.096 136.374 152.932 139.635C150.718 141.957 150.772 146.839 152.727 147.433C152.888 147.485 153.06 147.491 153.224 147.452C153.388 147.412 153.538 147.328 153.658 147.208C153.777 147.089 153.862 146.939 153.901 146.774C153.941 146.61 153.934 146.438 153.882 146.277C152.932 141.536 157.868 139.322 161.68 139.949Z" fill="#1D1D1D"/>
<path d="M180.225 146.481C185.064 146.06 189.6 145.11 192.019 143.112C199.19 137.215 194.546 122.462 183.379 121.404C162.103 119.406 159.047 148.166 180.225 146.481ZM185.28 124.363C192.764 125.519 195 137.42 190.442 141.114C186.435 144.354 174.642 145.11 171.002 141.956C175.268 137.161 181.964 129.201 185.28 124.363Z" fill="#1D1D1D"/>
<path d="M201.188 127.734C193.628 106.026 167.049 119.72 165.051 104.028C164.522 100.021 162.891 97.5479 160.515 102.127C148.192 125.725 117.542 106.296 115.425 133.523C114.734 142.465 106.677 144.906 109.733 156.916C107.235 156.028 104.556 155.775 101.936 156.181C99.4087 149.852 96.8815 145.111 94.2463 141.85C98.2531 139.009 98.1451 133.631 93.4039 131.633C86.5567 128.89 83.6083 121.513 92.1403 118.986C102.26 116.038 95.9311 113.089 97.4107 107.398C98.8903 103.283 117.002 105.054 112.477 98.9735C111.937 98.2391 110.479 96.6516 111.105 94.9668C111.526 93.8004 113.265 91.8672 120.166 90.6468C130.642 88.7892 134.811 82.212 147.037 81.3696C171.283 79.4904 167.74 88.6919 178.357 87.6983C198.628 85.7651 198.488 94.5563 200.691 91.8024C201.112 86.0135 184.966 83.7779 177.935 85.3223C176.564 85.6139 174.458 85.4303 173.615 84.6959C162.027 75.8399 141.064 77.9459 129.789 84.6959C122.521 89.3291 101.968 88.7999 110.608 100.604C101.763 103.024 91.4383 102.494 95.6503 114.191C93.0151 117.884 85.9303 116.513 84.5911 122.723C82.2691 133.523 100.921 133.372 92.7019 140.003C85.6279 131.514 66.7819 137.638 77.2147 159.292C64.5679 163.504 53.9299 183.624 68.1535 192.998C69.6223 196.897 70.3135 198.582 71.6311 201.962C72.9487 205.343 76.2643 206.909 74.6875 202.805C95.9635 206.801 118.406 194.683 122.099 180.989C124.519 185.73 126.841 191.951 128.731 195.104C130.102 197.534 133.375 199.111 131.582 195.32C129.789 191.53 126.625 184.358 122.099 174.984C130.102 179.617 143.699 182.782 158.441 183.203C154.964 192.685 139.898 195.083 134.217 186.054C132.208 182.89 130.21 183.203 130.837 184.682C135.265 197.74 154.121 196.692 159.392 186.475C167.297 198.064 188.476 196.8 191.792 184.315C192.742 180.632 190.323 179.682 189.999 181.27C187.051 194.856 166.93 194.543 160.925 184.002C161.04 183.709 161.181 183.427 161.347 183.16C181.683 183.473 193.401 177.76 198.855 169.994C202.635 164.594 199.071 164.832 198.747 165.458C191.554 179.099 174.62 180.578 162.815 180.74C146.702 180.946 126.571 177.263 119.205 169.94C112.347 158.06 108.027 151.494 115.306 141.914C119.41 136.223 116.246 127.27 122.996 122.95C123.104 123.132 123.253 123.286 123.432 123.4C123.61 123.514 123.813 123.584 124.024 123.604C124.235 123.623 124.447 123.592 124.643 123.514C124.84 123.436 125.016 123.313 125.156 123.155C128.59 119.18 135.535 117.755 142.112 121.265C144.855 122.734 144.542 118.835 142.112 118.306C150.86 117.042 156.551 112.906 162.448 103.877C162.772 109.277 166.142 112.938 172.46 114.677C170.883 115.519 167.297 116.47 168.453 118.673C168.668 118.93 168.974 119.096 169.307 119.136C169.64 119.176 169.976 119.088 170.246 118.889C178.994 111.934 185.625 120.044 186.899 117.096C193.217 119.256 196.479 124.267 198.164 126.816C199.924 129.84 201.609 129.419 201.188 127.734ZM63.6931 179.282C64.3303 170.642 71.4907 164.638 78.2299 161.581C84.7639 170.858 93.8251 180.762 83.6299 188.452C82.1019 185.752 80.2643 183.241 78.1543 180.967C76.6747 179.596 75.7243 180.438 76.2535 181.604C77.2039 183.764 79.9363 187.08 81.5239 189.92C72.7543 196.001 62.6455 189.467 63.6931 179.282ZM119.961 177.814C114.269 198.247 91.4059 202.654 73.2835 200.256C72.6463 198.668 71.8039 196.454 71.0695 194.564C79.1803 196.562 89.5051 189.715 90.7687 182.026C92.6695 170.329 72.6463 157.477 76.7287 144.625C77.1326 143.119 77.9817 141.77 79.1648 140.755C80.348 139.739 81.8101 139.104 83.3599 138.934C89.2783 138.296 95.4775 147.044 99.0631 156.948C83.2627 160.955 93.0583 178.969 106.861 174.757C108.545 174.541 110.025 171.593 108.437 172.122C101.806 173.915 97.7995 172.651 95.8015 170.534C86.4163 160.955 105.748 155.026 111.181 161.473C112.952 163.514 116.483 170.642 119.961 177.781V177.814Z" fill="#1D1D1D"/>
<path d="M148.927 139.948C152.405 124.677 134.39 116.987 123.86 125.724C118.374 130.368 118.59 140.477 122.694 144.268C128.18 149.117 146.508 150.694 148.927 139.948ZM143.452 143.847C138.397 146.795 126.28 145.11 124.012 141.687C128.753 137.788 136.756 131.254 141.605 126.567C148.085 128.889 148.927 140.585 143.452 143.847Z" fill="#1D1D1D"/>
<path d="M159.781 169.768C171.056 169.768 183.174 161.236 174.901 152.704C168.896 146.591 163.313 157.553 152.459 154.702C147.512 153.438 144.899 156.862 144.564 160.285C143.981 164.821 147.879 169.768 159.781 169.768ZM150.407 160.501C149.467 160.166 147.987 159.756 146.821 159.238C148.722 154.594 150.936 157.65 158.096 157.65C165.257 157.65 168.108 151.332 172.633 154.172C171.696 155.24 170.674 156.23 169.577 157.132C169.419 157.258 169.309 157.433 169.264 157.63C169.218 157.826 169.24 158.032 169.327 158.214C169.413 158.397 169.558 158.545 169.738 158.634C169.919 158.724 170.125 158.75 170.322 158.708C171.477 158.6 172.115 157.974 174.221 156.278C178.433 167.77 149.381 171.398 146.713 161.97C148.409 162.499 149.564 162.92 150.515 162.294C150.936 162.002 151.26 160.804 150.407 160.501Z" fill="#1D1D1D"/>
</svg>
