<svg width="252" height="251" viewBox="0 0 252 251" fill="none" xmlns="http://www.w3.org/2000/svg">
<path d="M218.741 186.208C219.105 184.865 216.883 176.783 217.398 175.691C217.912 174.599 225.442 176.318 226.446 177.536C227.162 178.402 228.956 184.137 230.362 189.27C240.264 174.348 239.536 152.586 229.383 137.175C229.509 149.035 222.292 139.685 217.887 138.279C215.584 138.944 213.336 139.783 211.161 140.789C210.182 145.935 208.098 149.574 201.986 146.663C201.986 146.663 198.56 153.151 201.008 154.005C203.455 154.858 211.524 156.941 211.775 158.774C210.671 169.654 205.5 159.627 199.539 159.501C189.022 162.564 186.337 166.479 191.344 175.528C192.323 176.13 197.343 177.724 198.196 178.828C201.259 185.179 196.728 185.668 193.791 189.835C193.302 191.09 194.532 198.394 195.385 199.009C196.239 199.624 199.79 198.143 202.476 197.653C210.307 197.29 207.119 193.75 210.671 189.584C212.265 188.781 218.377 187.563 218.741 186.208Z" fill="#49B38D" fill-opacity="0.2"/>
<path d="M183.525 190.249C182.182 190.249 178.267 191.103 176.924 192.696C170.072 200.892 174.715 201.005 182.421 201.62C184.015 201.13 188.533 196.487 188.533 195.345C188.533 194.202 184.868 190.249 183.525 190.249Z" fill="#49B38D" fill-opacity="0.2"/>
<path d="M152.827 143.4C153.078 149.675 158.086 152.323 159.554 156.489C159.918 161.007 153.568 167.784 153.442 170.42C153.317 173.055 157.471 175.076 158.211 177.398C158.701 179.104 157.358 189.383 159.466 191.943C160.721 193.537 167.297 182.894 168.766 182.894C174.877 184.363 177.689 181.916 180.5 176.908C180.864 175.804 175.367 172.503 174.388 170.909C173.66 169.566 173.773 161.622 172.43 160.154C170.836 158.322 165.967 157.82 165.101 156.728C164.499 155.987 163.256 146.085 166.193 144.178C168.025 142.923 172.92 145.044 174.639 144.667C176.358 144.291 179.283 139.534 180.751 139.17C189.799 144.667 187.352 146.876 192.121 134.64C192.611 124.499 188.356 130.875 182.947 128.164C182.094 127.06 188.206 121.199 190.477 118.262C172.882 118.952 159.943 130.084 152.827 143.4Z" fill="#49B38D" fill-opacity="0.2"/>
<path d="M199.425 132.77C201.86 134.602 210.921 131.954 212.992 131.916C216.669 131.854 222.53 136.685 225.341 132.042C218.376 123.847 205.776 119.203 195.623 118.463C193.552 121.763 195.999 122.868 197.957 125.804C198.559 126.909 197.468 131.301 199.425 132.77Z" fill="#49B38D" fill-opacity="0.2"/>
<path d="M21.6175 75.4162C27.3654 71.0237 32.3728 77.0101 37.3928 75.1778C44.722 72.6678 37.2673 59.4024 55.3644 52.5878C53.0427 56.5034 57.9372 67.9992 84.5934 56.9928C83.2505 71.9148 97.0681 72.5172 114.186 65.0625C113.207 69.2165 114.061 75.8304 126.535 76.8093C134.635 73.4527 143.602 72.8055 152.1 74.9644C152.1 74.9644 152.1 51.8599 130.69 52.5878C127.765 39.7491 114.375 29.3577 95.4742 36.8124C86.5512 24.8272 65.5174 24.4632 61.1123 37.0634C44.722 37.3019 36.6524 42.6858 34.0922 55.1605C5.71663 58.3357 5.35268 89.5224 20.7641 106.515C15.6186 99.1483 14.7652 80.8002 21.6175 75.4162Z" fill="#49B38D" fill-opacity="0.2"/>
<path d="M216.544 231.463C212.139 230.61 206.027 229.869 200.029 229.016C195.749 228.275 197.217 222.289 196.125 221.059C194.532 219.227 191.72 219.114 190.867 220.457C189.512 222.527 189.763 227.547 186.951 229.016C185.483 229.643 157.685 232.191 167.386 233.659C170.185 234.086 235.859 235.015 216.544 231.463Z" fill="#1D1D1D"/>
<path d="M85.4476 122.379C69.0573 119.317 68.3294 114.058 67.0744 110.155C67.0071 109.98 66.8968 109.825 66.7536 109.703C66.6104 109.582 66.439 109.499 66.2552 109.461C66.0713 109.424 65.881 109.433 65.7018 109.489C65.5225 109.544 65.3601 109.644 65.2296 109.779C57.4109 118.953 66.3591 135.255 77.2148 124.952C77.5105 124.649 77.8824 124.433 78.2911 124.325C78.6997 124.216 79.1301 124.22 79.5366 124.337C85.5731 125.679 88.8738 122.994 85.4476 122.379Z" fill="#1D1D1D"/>
<path d="M241.983 145.37C237.089 131.678 228.178 121.274 216.18 115.903C217.147 113.079 220.949 108.373 218.251 107.457C216.519 106.591 214.561 112.163 213.231 114.799C207.596 112.715 204.672 110.268 204.182 113.543C204.057 115.012 206.504 114.899 211.712 117.459L210.244 120.396C198.259 115.878 187.654 115.991 178.568 118.927C181.092 110.705 180.58 101.849 177.125 93.9714C173.67 86.0941 167.502 79.7191 159.743 76.0064C161.939 63.6572 150.958 43.8408 136.626 44.8197C133.564 28.5047 112.417 21.8281 97.3694 27.463C88.6848 14.4989 64.1119 14.0094 55.5528 27.576C42.5886 24.5263 25.9473 32.1065 25.8344 46.539C-0.332395 52.814 3.82166 87.1383 18.1287 105.599C13.2342 108.411 4.54956 112.452 10.059 113.431C11.314 113.669 15.443 110.13 20.212 108.172C34.268 129.444 68.9938 148.646 102.879 146.073C104.534 148.522 106.458 150.778 108.614 152.8C108.125 153.779 107.271 155.009 106.543 156.352C104.46 144.73 89.4252 147.428 82.3345 155.247C74.9147 153.374 67.7035 150.754 60.8112 147.428C58.2385 145.96 58.113 149.135 60.5602 150.604C64.7143 153.114 74.2523 156.101 80.0002 157.82C69.7343 168.337 61.9031 201.958 64.9402 215.048C37.9075 204.167 26.5372 201.958 21.0152 188.028C19.7602 184.966 17.953 184.84 18.0785 186.07C18.5679 192.797 23.8264 200.615 32.26 204.656C42.9024 209.789 56.2305 215.048 68.655 219.716C81.0795 224.385 91.3956 226.807 101.059 227.246C117.813 228.112 128.669 225.665 135.295 197.29C139.211 180.297 131.882 173.696 122.344 170.144C123.361 167.687 124.605 165.33 126.059 163.103C132.762 165.14 139.925 165.096 146.603 162.978C145.135 180.096 153.581 196.863 169.959 206.263C169.595 207.129 169.105 207.857 168.704 208.597C166.464 207.531 164.402 206.126 162.592 204.431C162.445 204.281 162.268 204.165 162.073 204.088C161.779 203.971 161.455 203.954 161.15 204.039C160.845 204.123 160.575 204.305 160.383 204.556C159.291 206.514 164.662 210.066 167.11 211.283C165.277 214.709 162.956 218.813 165.855 218.499C166.947 218.374 167.687 216.177 169.883 212.5C213.607 232.191 257.834 189.396 241.983 145.37ZM27.6039 49.5008C31.1556 48.7604 27.24 40.3268 34.8202 34.9428C37.7954 32.7286 41.2325 31.2151 44.8746 30.5153C48.5168 29.8156 52.27 29.9477 55.854 30.9017C56.1788 30.97 56.5167 30.9368 56.822 30.8066C57.1273 30.6764 57.3852 30.4555 57.5608 30.1738C65.6555 16.9712 87.5302 17.6238 95.4743 30.1738C95.6841 30.4814 95.9913 30.7094 96.3465 30.821C96.7017 30.9325 97.0841 30.9212 97.4321 30.7888C101.886 29.1465 106.646 28.5032 111.376 28.9044C116.106 29.3056 120.69 30.7416 124.804 33.1105C134.743 39.1345 131.819 47.656 136.663 47.656C148.887 47.907 158.425 63.5568 156.957 74.8142C147.469 71.4722 137.131 71.428 127.615 74.6887C121.741 76.0315 113.546 72.9693 115.504 65.6401C115.868 64.3852 115.63 62.7034 113.308 63.8078C99.7288 70.0828 84.2044 72.5928 85.9112 57.445C85.9536 57.1648 85.9206 56.8784 85.8155 56.6153C85.7104 56.3521 85.5371 56.1217 85.3133 55.9479C85.0896 55.774 84.8236 55.6629 84.5426 55.626C84.2617 55.5892 83.976 55.6279 83.715 55.7382C70.4998 61.7245 57.6612 63.2682 56.4438 54.3828C55.8289 49.9903 46.5419 52.8015 42.3753 61.9128C39.8653 67.5477 39.2001 75.6174 35.0461 74.0235C27.2149 71.0868 23.362 71.2751 19.1452 75.4919C14.9284 79.7087 14.0123 87.2387 15.3802 95.3083C7.05956 78.4788 6.83366 53.7804 27.6039 49.5008ZM24.6672 109.051C16.7231 97.9187 13.7864 78.8428 25.2822 75.1656C29.6872 73.8228 32.1345 76.5084 35.9246 77.1234C45.2116 78.5917 40.0786 59.8797 53.1683 55.1107C55.6783 65.5021 67.2243 65.1507 82.5102 59.3903C83.7652 74.8017 97.6831 73.1952 111.99 67.5854C111.865 72.4674 116.27 76.27 120.913 77.4873C111.865 82.2563 104.284 91.2923 99.8794 101.207C99.026 97.4418 93.2781 94.8566 92.0482 96.9273C91.9558 97.1176 91.9084 97.3266 91.9097 97.5381C91.911 97.7497 91.9608 97.9581 92.0554 98.1473C92.15 98.3365 92.2868 98.5014 92.4553 98.6293C92.6238 98.7573 92.8194 98.8448 93.0271 98.8851C105.376 103.78 92.6631 118.576 84.3425 108.787C82.7612 106.955 80.8034 108.913 82.1462 110.87C83.5991 113.037 85.8129 114.578 88.3488 115.19C90.8847 115.801 93.5578 115.438 95.8383 114.171C94.1749 124.098 95.9927 134.295 100.984 143.036C69.0566 144.755 37.6314 127.273 24.6672 109.051ZM107.949 147.454C81.2928 112.59 121.152 64.1718 157.107 77.8638C165.303 80.926 171.176 86.059 175.33 95.597C145.737 50.3542 83.9785 105.75 107.949 147.454ZM144.269 94.982C137.793 102.688 129.962 117.371 124.703 127.763C118.34 124.826 114.061 120.785 112.48 116.267C114.968 107.001 120.581 98.8792 128.368 93.2752C133.724 93.0218 139.088 93.5975 144.269 94.982ZM132.898 193.06C127.341 192.752 121.88 191.478 116.759 189.295C113.697 188.191 113.207 191.379 117.851 192.847C122.575 194.445 127.455 195.539 132.409 196.11C131.45 200.606 130.141 205.021 128.493 209.313C123.665 208.521 118.919 207.294 114.312 205.648C111.011 204.669 111.124 207.606 115.655 209.313C119.405 210.746 123.323 211.695 127.314 212.136C119.231 233.66 80.8787 220.206 68.4918 216.177C65.5551 206.878 70.4496 174.348 82.5478 159.702C88.2957 152.737 95.2735 149.8 101.373 152.976C106.016 155.297 100.432 166.781 107.246 168.751C119.884 172.39 135.71 173.984 132.898 193.06ZM120.913 165.664C116.502 164.016 112.345 161.756 108.564 158.949C109.417 157.594 110.271 156.251 110.886 155.034C114.432 157.988 118.438 160.341 122.745 161.999C122.294 163.103 121.641 164.321 120.913 165.664ZM111.375 121.036C118.905 132.042 138.521 137.665 150.996 132.896C161.751 128.854 163.709 109.778 159.781 101.96C155.852 94.1412 143.39 90.6648 133.426 90.1001C158.362 77.5501 179.522 99.1487 167.662 124.211C157.383 131.678 150.782 140.35 147.733 152.951C127.64 163.718 106.606 144.517 111.375 121.036ZM151.723 180.95C133.877 126.985 211.248 91.6939 233.298 148.545C253.479 200.59 174.715 235.379 151.723 180.95ZM171.414 209.689C171.778 208.961 172.268 208.221 172.669 207.367C199.689 217.646 223.785 204.556 234.302 184.376C243.087 167.383 240.05 135.581 213.382 121.525C213.871 120.546 214.36 119.567 214.85 118.714C240.05 128.854 249.463 167.257 235.771 189.521C220.698 215.198 192.21 218.01 171.414 209.689Z" fill="#1D1D1D"/>
<path d="M72.9718 97.7936C96.4529 95.2836 87.1659 59.8926 58.6648 65.6405C49.3778 67.4728 43.2283 80.9264 48.3989 88.3811C51.2101 92.2967 55.4897 91.5688 59.6939 92.9117C65.3916 94.744 67.2239 98.4086 72.9718 97.7936ZM56.2176 89.0086C48.8884 87.9042 47.9095 81.1774 51.0846 75.4295C55.0002 68.5898 62.8189 65.5276 74.3147 70.4095C69.1219 76.4777 64.4612 82.9817 60.3842 89.8495C58.9158 89.4353 57.5604 89.2345 56.2176 88.9961V89.0086Z" fill="#1D1D1D"/>
</svg>
