<svg width="280" height="280" viewBox="0 0 280 280" fill="none" xmlns="http://www.w3.org/2000/svg">
<path d="M183.607 34.4139C186.565 35.6415 190.317 43.7883 193.93 42.4072C195.577 40.2171 183.886 30.7311 183.496 31.4983C181.166 31.3588 181.236 35.1951 183.607 34.4139Z" fill="#49B38D" fill-opacity="0.2"/>
<path d="M211.048 49.5343C208.76 48.9624 208.76 61.5592 210.964 60.6943C212.931 61.7685 213.252 48.7392 211.048 49.5343Z" fill="#49B38D" fill-opacity="0.2"/>
<path d="M226.49 62.0624C219.975 63.4574 230.842 66.8751 233.535 67.3355C233.894 67.428 234.275 67.3741 234.594 67.1858C234.913 66.9974 235.144 66.69 235.237 66.3311C235.329 65.9722 235.275 65.5913 235.087 65.2721C234.899 64.9529 234.591 64.7217 234.232 64.6292C231.589 63.9762 229 63.118 226.49 62.0624Z" fill="#49B38D" fill-opacity="0.2"/>
<path d="M204.295 38.6402C205.731 37.0888 207.32 35.6867 209.038 34.4552C209.54 34.5807 208.884 39.4353 211.074 39.1703C213.864 38.5844 211.8 31.2048 209.386 31.5257C208.884 30.1725 197.069 39.8538 204.295 38.6402Z" fill="#49B38D" fill-opacity="0.2"/>
<path d="M178.962 55.5325C182.073 54.5839 180.357 49.7293 181.529 46.0326C181.556 45.8501 181.548 45.6641 181.503 45.4851C181.458 45.3061 181.378 45.1378 181.268 44.9899C181.158 44.842 181.019 44.7175 180.86 44.6234C180.702 44.5294 180.526 44.4679 180.343 44.4423C178.027 43.4797 176.828 56.5648 178.962 55.5325Z" fill="#49B38D" fill-opacity="0.2"/>
<path d="M116.787 66.0649C122.646 67.4599 115.392 60.7918 115.545 58.4064C113.941 55.6164 116.801 51.1803 114.402 49.4086C109.31 52.0312 113.244 62.7169 116.787 66.0649Z" fill="#49B38D" fill-opacity="0.2"/>
<path d="M247.289 104.86C249.521 99.9353 260.709 93.9647 256.747 92.3047C251.655 90.1564 243.788 91.5653 234.804 93.3509C224.369 78.5081 214.702 65.981 198.213 85.1344C192.061 79.9868 178.683 76.876 168.918 80.21C164.161 83 175.642 88.4545 174.847 91.4816C174.847 93.2812 174.024 95.834 168.625 96.0851C141.171 101.777 161.985 114.22 169.35 121.279C190.805 96.0293 180.413 107.929 196.595 117.722C198.241 117.457 205.034 109.77 207.838 109.435C211.577 108.989 214.813 124.055 217.394 124.892C227.578 114.485 231.344 122.827 235.264 138.354C241.249 137.321 242.072 134.322 243.857 132.955C249.256 142.385 240.928 150.281 238.277 153.029C246.229 153.531 253.511 144.45 251.753 137.907C257.333 136.275 265.047 138.619 265.577 133.611C265.982 128.84 261.644 117.191 247.289 104.86Z" fill="#49B38D" fill-opacity="0.2"/>
<path d="M224.118 49.7427C227.578 50.0357 232.488 55.0438 235.362 52.1701C235.139 49.3801 227.48 48.5988 224.969 47.0783C225.192 45.0974 227.913 42.5306 225.82 41.1356C225.652 41.0617 225.47 41.0219 225.286 41.0184C225.102 41.0149 224.92 41.0478 224.749 41.1152C224.577 41.1826 224.421 41.2832 224.289 41.4112C224.157 41.5392 224.052 41.6921 223.979 41.861C223.156 45.5019 218.399 52.3374 221.37 55.2669C223.923 55.2948 223.156 51.5283 224.118 49.7427Z" fill="#49B38D" fill-opacity="0.2"/>
<path d="M93.7843 68.8552C96.4069 67.9484 102.154 69.9433 103.549 66.8603C101.959 63.8053 96.3511 66.5813 93.7006 66.0512C93.3288 66.0623 92.9766 66.2207 92.7215 66.4914C92.4664 66.7622 92.3294 67.1232 92.3405 67.495C92.3516 67.8669 92.5099 68.2191 92.7807 68.4741C93.0515 68.7292 93.4125 68.8663 93.7843 68.8552Z" fill="#49B38D" fill-opacity="0.2"/>
<path d="M252.996 55.2397C254.614 56.8439 259.706 45.4747 257.264 44.9027C253.972 45.112 253.93 51.515 252.284 53.3843C252.208 53.5526 252.165 53.7345 252.16 53.9193C252.154 54.1041 252.185 54.2882 252.252 54.4608C252.318 54.6335 252.418 54.7912 252.545 54.9249C252.673 55.0586 252.826 55.1656 252.996 55.2397Z" fill="#49B38D" fill-opacity="0.2"/>
<path d="M248.14 66.9304C251.432 66.7211 251.474 60.3181 253.134 58.4348C253.208 58.2672 253.249 58.0866 253.253 57.9033C253.257 57.72 253.226 57.5376 253.16 57.3666C253.094 57.1956 252.994 57.0393 252.868 56.9066C252.741 56.7739 252.59 56.6675 252.422 56.5934C250.818 54.9055 245.67 66.5119 248.14 66.9304Z" fill="#49B38D" fill-opacity="0.2"/>
<path d="M233.577 38.8351C235.99 38.9607 240.343 43.9408 242.868 41.8344C243.105 38.5143 236.465 37.6494 234.595 36.2544C234.263 36.1625 233.909 36.1966 233.601 36.3503C233.292 36.504 233.052 36.7663 232.925 37.0868C232.799 37.4072 232.796 37.7631 232.916 38.0859C233.036 38.4087 233.272 38.6755 233.577 38.8351Z" fill="#49B38D" fill-opacity="0.2"/>
<path d="M246.201 74.9921C250.205 75.0618 250.205 68.6309 246.02 68.8541C241.947 68.8541 242.519 75.2292 246.201 74.9921Z" fill="#49B38D" fill-opacity="0.2"/>
<path d="M86.865 51.7233C89.3621 52.3371 88.26 39.5171 86.1257 40.5633C84.075 39.6287 84.8562 52.5324 86.865 51.7233Z" fill="#49B38D" fill-opacity="0.2"/>
<path d="M134.113 43.536C135.508 39.1975 117.861 38.4163 124.85 42.5176C127.528 41.4016 131.755 45.5308 134.113 43.536Z" fill="#49B38D" fill-opacity="0.2"/>
<path d="M137.726 59.6065C134.936 59.481 134.462 65.326 131.323 66.0514C128.017 73.696 142.204 62.2431 137.726 59.6065Z" fill="#49B38D" fill-opacity="0.2"/>
<path d="M119.437 155.972C114.511 154.879 109.497 154.225 104.455 154.019C99.1258 178.697 45.6555 178.711 37.3831 166.825C31.8957 170.871 28.1587 176.858 26.9346 183.565C42.0285 186.104 65.9946 214.395 62.8279 228.205C138.06 224.02 96.5451 205.732 112.894 185.532C117.035 187.054 121.289 188.248 125.617 189.103C118.112 179.631 119.437 155.972 119.437 155.972Z" fill="#49B38D" fill-opacity="0.2"/>
<path d="M170.424 55.3934C170.556 55.0475 170.544 54.6635 170.392 54.326C170.241 53.9886 169.961 53.7252 169.615 53.5938C169.269 53.4625 168.885 53.474 168.548 53.6257C168.21 53.7774 167.947 54.057 167.816 54.4029C166.504 57.8904 163.338 61.6151 158.371 61.6151C156.349 62.2568 153.126 59.0762 151.592 61.1687C151.515 61.337 151.473 61.5189 151.467 61.7037C151.462 61.8885 151.493 62.0726 151.559 62.2452C151.625 62.4179 151.725 62.5756 151.853 62.7093C151.981 62.843 152.134 62.95 152.303 63.024C153.973 63.8671 155.805 64.3372 157.674 64.4018C159.543 64.4664 161.404 64.1239 163.128 63.3981C164.851 62.6723 166.397 61.5805 167.657 60.1984C168.916 58.8162 169.861 57.1767 170.424 55.3934Z" fill="#49B38D" fill-opacity="0.2"/>
<path d="M11.1442 51.9054C4.4063 50.7197 14.7293 59.3408 16.487 59.9546C20.8255 57.9458 12.5392 53.9142 11.1442 51.9054Z" fill="#49B38D" fill-opacity="0.2"/>
<path d="M161.775 39.4055C162.198 38.5767 162.562 37.719 162.863 36.8387C155.177 31.5238 140.432 43.5068 145.998 46.6037C150.155 42.1537 153.057 35.7088 161.775 39.4055Z" fill="#49B38D" fill-opacity="0.2"/>
<path d="M29.6267 66.2178C32.4864 66.3434 31.3007 60.1775 32.6957 59.1312C35.1927 59.7171 38.8337 64.8647 41.5958 64.6415C44.316 65.046 44.3021 60.2612 41.4563 61.8515C38.4291 60.7355 34.9416 54.9881 31.3983 56.6481C29.9615 57.0387 26.9204 64.9902 29.6267 66.2178Z" fill="#49B38D" fill-opacity="0.2"/>
<path d="M63.0791 65.8422C64.6276 68.981 68.6591 66.2189 73.0673 65.4935C73.4225 65.3899 73.722 65.1494 73.8999 64.825C74.0778 64.5006 74.1195 64.1189 74.0159 63.7637C73.9123 63.4085 73.6719 63.109 73.3475 62.9311C73.0231 62.7532 72.6413 62.7115 72.2861 62.8151C68.0034 64.8378 64.4044 62.9685 63.0791 65.8422Z" fill="#49B38D" fill-opacity="0.2"/>
<path d="M60.8064 41.1085C62.4944 39.8809 69.581 41.4852 70.5714 38.5836C70.2506 35.2635 54.3057 38.737 60.8064 41.1085Z" fill="#49B38D" fill-opacity="0.2"/>
<path d="M43.7445 44.8187C46.7856 43.5074 44.4141 36.7695 45.3069 35.1513C45.3378 34.7833 45.2216 34.418 44.9836 34.1356C44.7456 33.8532 44.4054 33.6767 44.0375 33.6447C41.9729 32.3195 41.1498 45.1395 43.7445 44.8187Z" fill="#49B38D" fill-opacity="0.2"/>
<path d="M190.959 194.559C189.215 192.648 190.178 185.659 186.663 184.794C183.147 183.929 180.287 190.067 177.26 190.974C174.233 191.881 167.495 190.207 166.644 193.429C165.654 196.903 170.229 198.828 170.16 202.232C170.09 206.096 164.859 208.802 167.105 212.206C168.918 214.996 174.777 212.29 178.265 213.35C182.324 214.605 185.881 220.646 189.09 219.669C192.298 218.693 189.955 212.178 191.88 208.704C193.805 205.231 200.027 203.947 199.762 200.502C199.497 197.056 192.703 196.47 190.959 194.559Z" fill="#49B38D" fill-opacity="0.2"/>
<path d="M58.9215 54.5848C75.3406 52.7434 74.1549 47.833 58.2937 51.7948C57.4707 49.9255 58.5169 46.4101 56.0199 46.2148C53.2299 47.3447 55.7688 51.4042 55.8943 53.8873C56.2012 60.1787 61.558 62.2852 58.9215 54.5848Z" fill="#49B38D" fill-opacity="0.2"/>
<path d="M242.95 68.8539C243.229 66.7893 246.55 67.4589 246.257 69.3282C246.24 69.5571 246.176 69.7802 246.069 69.9835C245.963 70.1868 245.815 70.3659 245.636 70.5098C245.458 70.6537 245.251 70.7593 245.03 70.82C244.808 70.8807 244.577 70.8952 244.349 70.8626C244.122 70.83 243.904 70.751 243.709 70.6305C243.513 70.51 243.345 70.3506 243.213 70.1622C243.082 69.9738 242.991 69.7605 242.946 69.5354C242.901 69.3103 242.902 69.0783 242.95 68.8539Z" fill="#1D1D1D"/>
<path d="M252.41 53.8305C252.912 52.4355 260.124 38.8622 253.916 43.0472C253.024 48.0552 243.872 61.1822 246.551 64.2651C249.689 64.3349 250.666 55.8672 252.41 53.8305Z" fill="#1D1D1D"/>
<path d="M62.676 64.5443C62.8992 64.9767 77.7559 62.5355 70.6972 60.15C56.9565 63.8747 61.2112 60.9452 57.3331 51.9195C60.3742 50.5245 68.1165 52.0451 68.8698 48.2088C67.4748 45.8931 59.593 49.2411 56.6914 49.1993C55.701 39.2948 52.2972 38.9181 67.6003 37.3697C67.9703 37.3512 68.3178 37.1865 68.5663 36.9118C68.8149 36.6371 68.9441 36.2749 68.9256 35.9049C68.9071 35.535 68.7424 35.1875 68.4677 34.939C68.193 34.6904 67.8308 34.5612 67.4608 34.5797C58.8258 34.9842 54.3478 36.5745 53.3713 39.5738C52.3948 44.5539 54.9058 64.6698 62.676 64.5443Z" fill="#1D1D1D"/>
<path d="M231.902 64.6707C232.261 64.7632 232.642 64.7094 232.961 64.521C233.28 64.3326 233.511 64.0252 233.604 63.6663C233.696 63.3074 233.643 62.9265 233.454 62.6074C233.266 62.2882 232.958 62.0569 232.6 61.9644C224.983 60.0254 221.244 57.7794 220.937 56.9703C220.644 54.8499 221.384 50.9718 222.542 47.0798C225.652 47.3309 231.4 52.4505 233.771 49.5071C234.036 47.01 225.625 45.7685 223.393 44.4153C226.978 32.8926 228.847 34.0923 239.393 39.756C239.72 39.9179 240.096 39.9456 240.443 39.8333C240.789 39.721 241.078 39.4776 241.248 39.1551C241.417 38.8326 241.454 38.4566 241.35 38.1075C241.246 37.7584 241.009 37.4638 240.69 37.2869C234.232 33.897 228.694 30.9536 225.834 33.5483C222.304 36.6731 217.38 51.8088 218.119 57.3609C218.677 60.9321 227.884 63.6663 231.902 64.6707Z" fill="#1D1D1D"/>
<path d="M147.408 58.4901C164.664 71.7286 180.037 42.4197 161.274 34.1752C145.929 27.5908 134.783 49.4086 147.408 58.4901ZM146.389 41.7501C157.549 24.7869 176.898 47.7207 161.288 57.8344C153.337 62.7448 139.763 51.9057 146.389 41.6803V41.7501Z" fill="#1D1D1D"/>
<path d="M86.1392 64.6695C89.3896 68.1012 95.9042 65.353 100.619 65.7297C100.989 65.7297 101.344 65.5827 101.606 65.3211C101.867 65.0595 102.014 64.7047 102.014 64.3347C101.261 61.5447 96.4343 63.7069 94.7185 63.3442C85.3022 65.0043 87.9946 60.4566 86.9065 51.3891C86.0974 49.171 87.9248 38.9736 84.5908 37.9971C81.7031 37.4112 84.9953 64.9206 86.1392 64.6695Z" fill="#1D1D1D"/>
<path d="M18.8161 61.5868C29.0275 72.4399 28.7345 65.5067 31.0223 56.4811C33.6449 56.9275 37.523 62.6888 40.4386 61.9495C43.3541 61.517 43.6052 56.3695 43.5355 42.8659C42.7822 38.6809 45.2095 32.3057 42.4055 30.9805C38.4995 31.5106 42.2521 56.6624 39.8108 59.1595C29.2646 51.1103 28.9717 51.1103 26.2654 64.3489C23.2103 63.7211 11.5621 47.7623 7.58631 49.3945C6.19131 52.1147 18.551 60.1081 18.8161 61.5868Z" fill="#1D1D1D"/>
<path d="M177.372 52.8824C177.555 52.9018 177.739 52.885 177.915 52.833C178.09 52.7811 178.254 52.695 178.397 52.5797C178.539 52.4644 178.658 52.3221 178.745 52.161C178.833 51.9999 178.888 51.8232 178.907 51.6409C180.134 40.4809 181.432 33.9244 182.255 31.9156C196.721 46.6468 193.415 43.8847 207.462 31.7621C208.774 36.1424 207.769 50.3435 207.951 56.6768C207.951 57.0468 208.098 57.4016 208.359 57.6632C208.621 57.9248 208.976 58.0718 209.346 58.0718C212.317 56.6768 210.015 51.6269 210.81 48.2231C211.201 31.6226 211.508 22.5272 200.348 34.3847C198.423 36.3238 195.521 39.2533 194.489 39.4207C191.699 38.765 183.329 26.7262 180.943 29.1256C180.232 29.5441 178.363 30.674 176.103 51.3619C176.086 51.5452 176.105 51.7301 176.159 51.906C176.214 52.0819 176.303 52.2452 176.421 52.3866C176.539 52.5279 176.684 52.6445 176.847 52.7296C177.01 52.8147 177.189 52.8667 177.372 52.8824Z" fill="#1D1D1D"/>
<path d="M124.237 67.4601C128.589 68.6319 139.582 61.629 136.136 57.0115C135.964 56.9468 135.781 56.9168 135.597 56.9232C135.413 56.9296 135.232 56.9722 135.065 57.0487C134.898 57.1252 134.747 57.234 134.622 57.3689C134.497 57.5037 134.4 57.662 134.336 57.8345C130.737 67.8785 116.801 66.5812 113.955 55.7839C111.11 44.9866 120.01 36.1563 130.695 41.5828C130.86 41.6637 131.039 41.7114 131.223 41.7229C131.406 41.7344 131.59 41.7097 131.763 41.6501C131.937 41.5905 132.097 41.4972 132.235 41.3755C132.372 41.2538 132.484 41.1062 132.565 40.9411C131.63 35.2216 118.28 36.7701 115.895 39.8809C106.116 47.3023 110.9 67.2369 124.237 67.4601Z" fill="#1D1D1D"/>
<path d="M189.564 128.84C186.635 116.285 166.77 123.427 172.336 134.95C173.731 137.879 179.311 135.661 181.376 138.423C186.481 140.948 190.638 133.513 189.564 128.84ZM174.875 133.778C174.493 132.941 174.301 132.031 174.311 131.112C174.32 130.192 174.533 129.286 174.932 128.458C175.332 127.63 175.908 126.9 176.622 126.319C177.335 125.739 178.168 125.323 179.06 125.101C179.461 128.587 180.329 132.002 181.641 135.257C179.569 134.139 177.224 133.627 174.875 133.778Z" fill="#1D1D1D"/>
<path d="M81.577 164.789C81.2292 164.668 80.8478 164.69 80.5159 164.849C80.184 165.009 79.9286 165.293 79.8054 165.64C78.7033 169.016 73.2349 169.211 71.3098 166.561C71.0858 166.267 70.7543 166.074 70.3882 166.024C70.022 165.974 69.6511 166.072 69.3568 166.296C67.3341 169.169 72.9699 171.304 75.3972 171.22C78.4243 171.611 84.6879 167.551 81.577 164.789Z" fill="#1D1D1D"/>
<path d="M206.053 150.169C204.184 149.458 186.258 140.279 184.947 147.742C184.598 152.945 186.23 156.893 191.112 158.483C198.827 161.608 205.676 161.273 206.723 151.508C206.75 151.245 206.701 150.979 206.583 150.741C206.464 150.504 206.28 150.306 206.053 150.169ZM201.449 156.907C199.789 158.302 189.411 156.754 188.127 152.345C191.488 153.542 194.922 154.521 198.408 155.275C202.747 153.392 196.483 151.676 194.726 151.453C191.085 150.267 187.248 150.155 187.848 147.63C193.135 147.784 200.501 150.518 203.807 152.122C203.388 154.661 202.635 156.182 201.449 156.907Z" fill="#1D1D1D"/>
<path d="M191.448 138.674C191.56 141.548 200.223 145.272 201.394 142.05C201.394 138.549 189.593 142.05 195.466 132.941C196.093 132.43 196.856 132.111 197.66 132.025C198.465 131.938 199.277 132.087 199.999 132.452C208.077 130.137 189.007 124.473 191.448 138.674Z" fill="#1D1D1D"/>
<path d="M217.102 131.142C209.806 130.361 205.035 139.066 208.453 145.092C208.709 145.63 209.13 146.071 209.654 146.352C210.179 146.633 210.78 146.739 211.369 146.655C214.493 146.111 217.465 147.743 220.841 148.649C230.048 146.125 226.769 130.738 217.102 131.142ZM210.978 143.809C210.462 142.929 210.156 141.941 210.084 140.923C210.011 139.906 210.174 138.885 210.56 137.941C210.946 136.996 211.545 136.153 212.309 135.477C213.073 134.802 213.983 134.311 214.968 134.044C215.676 137.706 216.794 141.276 218.302 144.688C215.948 143.891 213.454 143.592 210.978 143.809Z" fill="#1D1D1D"/>
<path d="M249.409 103.869C270.808 86.9897 257.179 80.8377 232.976 84.9669C222.723 64.4744 212.26 59.3826 197.934 82.2467C186.076 68.2967 142.622 71.8539 168.639 90.4214C158.79 90.4214 148.048 96.9779 146.863 105.432C146.653 110.677 155.233 114.122 160.631 117.443C158.385 121.934 160.297 130.5 164.23 133.555C163.447 136.837 163.123 140.213 163.268 143.585C159.838 143.908 156.496 144.854 153.405 146.375C152.554 136.512 156.976 124.613 144.366 116.885C142.301 115.838 132.55 112.532 126.161 116.592C119.186 120.428 122.743 131.058 118.739 129.481C109.825 128.449 112.797 137.851 117.791 143.892C118.837 145.147 118.726 147.24 118.6 149.639C114.847 148.308 110.916 147.541 106.938 147.365C106.926 143.253 106.082 139.186 104.455 135.41C107.998 129.467 105.292 117.666 98.1493 115.406C93.6016 104.985 79.2052 102.125 71.1281 105.125C66.8176 102.669 62.0327 101.414 57.1781 102.809C58.463 101.328 60.0716 100.164 61.8793 99.4052C74.3087 93.8252 70.333 82.3583 59.0893 83.1255C62.4233 73.0815 47.9293 71.826 42.3493 78.1733C37.1041 63.2468 14.812 79.3451 27.7297 90.5888C12.8729 92.0256 5.24227 117.066 24.7723 113.495C23.74 119.075 28.9573 122.618 34.3141 120.791C33.8902 122.013 33.5683 123.268 33.3515 124.543C28.762 126.789 26.7811 131.365 27.8692 137.014C23.3354 142.483 25.8046 151.55 30.6592 156.74C32.2495 158.246 31.6775 160.925 32.5145 162.822C14.6027 177.539 -0.379575 191.112 12.9845 210.391C17.588 217.548 26.4742 224.048 29.7245 229.698C16.2488 240.203 54.4718 255.324 63.3998 230.019C81.1163 235.683 102.809 228.805 118.195 221.342C129.69 213.084 111.527 198.436 114.275 187.416C125.645 191.071 137.851 191.112 149.918 189.69C132.118 223.644 175.781 239.254 208.006 235.18C209.205 253.846 240.174 257.263 247.261 240.203C249.088 235.571 257.249 238.933 259.035 233.618C261.825 228.805 254.696 224.983 256.677 220.965C267.237 198.729 257.151 176.437 239.17 157.549C239.406 156.636 239.547 155.701 239.588 154.759C247.052 154.229 255.645 149.304 258.756 141.283C263.261 142.915 271.422 148.9 272.538 140.6C273.292 125.631 264.154 111.207 249.409 103.869ZM163.087 118.893C164.705 119.884 166.435 121 168.262 122.269C166.995 124.906 165.941 127.639 165.109 130.444C163.903 128.806 163.092 126.91 162.741 124.906C162.39 122.902 162.508 120.844 163.087 118.893ZM99.335 119.144C102.669 121.934 103.966 127.863 102.864 131.853C101.488 129.193 99.9122 126.643 98.1493 124.222C98.7119 123.517 99.1102 122.696 99.3154 121.817C99.5205 120.939 99.5272 120.026 99.335 119.144ZM95.6522 116.522C98.9165 124.683 93.3365 124.794 85.3571 120.707C97.8284 122.813 90.2536 108.738 77.5312 110.258C76.4892 109.121 75.3554 108.071 74.1413 107.12C81.2837 105.683 92.1508 108.501 95.6522 116.522ZM60.9725 104.957C75.1178 103.869 91.258 130.472 66.4688 124.655C88.454 122.674 62.7581 100.661 53.4116 111.695C52.6299 111.408 51.8279 111.179 51.0122 111.012C53.5093 107.092 56.8852 105.041 60.9725 104.957ZM48.278 117.763C44.3999 117.289 39.7267 119.828 38.3456 123.162C37.6949 123.215 37.0476 123.304 36.4066 123.427C43.0468 97.6335 78.968 129.844 52.4491 131.295C61.6282 129.537 60.7633 120.079 48.278 117.763ZM58.7545 85.9853C67.7383 84.7856 69.496 92.751 61.4189 96.4757C65.4086 82.6791 47.3573 92.5139 49.0034 102.935C48.2883 102.146 47.4554 101.473 46.5343 100.94C46.6738 95.3597 51.1796 86.9897 58.7545 85.9853ZM42.3493 82.2048C50.3984 71.6447 65.3947 79.2474 50.1334 87.3245C57.764 74.1696 37.969 81.7445 41.7634 94.3832C41.03 93.7674 40.2512 93.2078 39.4337 92.7092C39.136 90.8516 39.2424 88.9517 39.7455 87.1389C40.2486 85.3261 41.1367 83.6432 42.3493 82.2048ZM27.074 80.5029C29.3339 74.1417 40.2568 72.4538 39.9499 80.768C39.435 81.4015 38.9687 82.073 38.5549 82.7768C35.6114 70.2218 22.9867 83.4324 34.5233 90.7283C29.1386 90.4353 25.2745 84.0462 27.074 80.5029ZM26.1673 109.477C22.1497 112.267 18.8156 111.835 16.472 108.696C12.287 98.8053 29.9896 87.5058 39.4477 96.1409C29.041 90.4214 14.6446 108.431 27.1298 107.998C26.7811 108.487 26.4463 108.975 26.1673 109.477ZM28.5527 117.568C23.3494 108.459 42.7817 96.1269 48.2362 106.52C41.038 100.94 23.6981 115.964 37.4807 115.336C35.0534 119.075 28.8178 118.572 28.5527 117.568ZM34.4396 127.054C53.314 120.442 49.2127 144.003 39.35 138.214C45.2648 139.33 48.8918 129.44 40.4381 128.672C34.2164 128.114 32.375 133.178 31.8728 135.312C31.4113 135.232 30.9393 135.232 30.4778 135.312C30.0175 131.546 31.3985 128.63 34.4396 127.054ZM28.6504 141.269C32.2495 130.542 44.6371 153.113 50.3705 134.029C51.1145 134.085 51.812 134.113 52.463 134.113C50.0776 134.908 49.1987 138.772 52.463 137.544C56.8852 133.904 61.4468 133.136 66.0364 135.285C66.203 135.362 66.3833 135.406 66.5669 135.413C66.7504 135.421 66.9337 135.392 67.1061 135.328C67.2785 135.265 67.4366 135.168 67.5714 135.043C67.7063 134.918 67.8151 134.768 67.8917 134.601C68.5474 131.811 63.8602 131.811 62.1443 131.351C63.4208 130.293 64.2647 128.804 64.5158 127.166C71.4908 129.286 80.9908 129.063 82.1068 122.158C83.5735 123.056 85.1026 123.849 86.6824 124.529C84.2132 124.627 74.7691 129.732 79.4981 131.881C88.1332 123.581 90.7837 129.398 93.1412 126.133C93.9994 126.167 94.8573 126.059 95.6801 125.813C131.629 173.256 43.4932 187.764 34.621 159.53C33.0725 153.015 26.251 148.37 28.6504 141.269ZM57.5269 234.539C57.1084 232.725 57.22 228.777 54.6392 229.349C54.4695 229.42 54.3154 229.523 54.1856 229.653C54.0559 229.783 53.9531 229.937 53.8831 230.107C53.8131 230.276 53.7773 230.458 53.7778 230.642C53.7783 230.826 53.815 231.007 53.8859 231.177C54.6221 233.082 54.9408 235.123 54.8206 237.161C52.6097 238.905 50.0353 240.131 47.2876 240.747C47.2876 239.003 48.6826 233.925 45.8926 233.451C45.708 233.463 45.5276 233.512 45.3621 233.595C45.1966 233.677 45.0492 233.792 44.9284 233.932C44.8077 234.073 44.716 234.235 44.6588 234.411C44.6016 234.587 44.58 234.773 44.5952 234.957C44.7766 237.301 44.8882 239.854 44.1767 241.193C39.5732 242.323 26.1394 236.813 30.4918 232.363C35.165 229.029 30.7429 226.294 25.8883 220.896C18.4948 213.767 6.17693 200.668 11.8267 189.592C15.635 184.012 22.2334 182.408 29.4874 185.309C45.8786 194.265 70.5283 218.357 57.5269 234.539ZM114.345 184.472C114.792 178.167 112.685 172.838 107.468 167.146C107.216 166.874 106.867 166.714 106.497 166.699C106.127 166.685 105.766 166.818 105.494 167.07C105.222 167.321 105.061 167.671 105.047 168.041C105.032 168.411 105.166 168.772 105.417 169.044C112.085 175.781 111.862 182.087 111.36 189.969C111.36 198.52 117.47 205.732 119.088 213.684C121.278 224.481 71.9651 232.976 63.9997 227.131C64.9483 218.482 61.1399 211.521 53.9557 202.328C55.5739 199.427 64.2368 193.833 62.8139 190.624C59.4101 189.662 54.974 198.269 52.1282 200.18C45.0416 192.047 29.4595 176.353 16.3604 182.282C21.2319 175.768 27.0809 170.046 33.7003 165.319C50.6216 184.472 101.972 179.534 106.77 150.099C110.737 150.254 114.651 151.05 118.363 152.457C117.665 159.167 116.256 178.111 122.255 186.495C119.588 185.945 116.949 185.27 114.345 184.472ZM132.48 187.681C112.532 188.601 124.654 150.239 120.469 142.79C117.679 138.772 114.401 134.043 116.284 132.285C118.112 131.56 121.195 133.583 122.799 130.89C124.529 126.538 123.19 119.423 130.206 117.805C131.002 119.479 128.63 125.882 131.49 126.97C134.629 126.05 132.536 119.075 133.024 117.387C135.132 117.314 137.239 117.53 139.288 118.028C139.546 120.575 139.546 123.141 139.288 125.687C139.27 125.88 139.293 126.075 139.356 126.259C139.418 126.443 139.518 126.612 139.649 126.756C139.781 126.899 139.94 127.013 140.118 127.091C140.296 127.169 140.489 127.208 140.683 127.208C143.473 126.357 141.91 121.056 142.203 118.838C151.564 122.618 150.797 133.513 150.657 139.763C150.42 155.875 152.889 188.936 132.466 187.681H132.48ZM254.054 219.766C250.874 223.825 258.239 229.266 256.454 232.321C255.756 233.785 253.427 234.706 250.065 234.832C242.253 236.004 245.001 246.717 232.153 248.001C232.104 244.812 232.361 241.626 232.92 238.487C230.033 232.028 229 244.959 229.377 248.252C226.13 248.359 222.895 247.794 219.877 246.592C219.49 243.065 220.023 239.499 221.425 236.241C221.506 236.075 221.553 235.895 221.563 235.711C221.574 235.527 221.548 235.343 221.487 235.169C221.426 234.996 221.331 234.836 221.208 234.699C221.085 234.562 220.936 234.451 220.77 234.371C216.822 234.176 217.185 242.993 216.961 245.127C203.123 236.073 215.566 217.617 221.328 202.984C228.554 195.242 242.643 189.996 251.571 191.74C264.545 194.07 255.547 214.716 254.041 219.794L254.054 219.766ZM256.761 190.792C245.936 185.212 230.033 191.294 220.407 199.985C219.166 198.283 212.581 186.467 212.637 193.54C214.925 196.902 216.278 198.659 218.58 202.328C214.297 211.758 208.815 223.253 208.033 232.265C182.658 235.766 155.023 225.89 149.443 211.242C146.402 203.082 151.564 188.197 161.998 175.056C162.114 174.912 162.199 174.748 162.25 174.571C162.301 174.394 162.317 174.209 162.296 174.026C162.275 173.843 162.219 173.666 162.129 173.506C162.04 173.345 161.92 173.203 161.775 173.089C157.716 172.545 153.768 183.105 151.355 186.439C148.706 187.032 146.005 187.363 143.291 187.43C153.977 179.492 152.582 162.11 153.391 149.444C156.53 147.706 160 146.651 163.575 146.347C164.621 154.047 170.131 157.674 176.046 161.511C180.747 172.419 183.481 179.464 190.191 179.939C197.613 178.976 204.141 173.298 213.223 170.076C222.569 169.071 231.888 167.077 237.859 160.311C247.261 170.69 253.608 180.873 256.747 190.819L256.761 190.792ZM180.036 163.645C188.171 167.607 197.039 169.839 206.08 170.201C191.168 177.665 187.429 182.547 179.966 163.715L180.036 163.645ZM238.849 148.9C235.055 152.638 238.57 159.237 231.944 161.79C213.32 173.814 162.068 166.7 166.379 137.726C167.774 127.263 174.414 113.216 184.611 107.747C187.569 111.458 190.191 116.117 194.069 118.489C194.851 118.863 195.72 119.014 196.581 118.925C197.443 118.837 198.263 118.512 198.952 117.987C200.696 116.857 206.89 110.175 208.48 111.012C210.475 115.336 212.023 120.274 214.632 124.208C213.125 124.208 208.48 122.451 207.964 125.171C207.964 125.541 208.111 125.896 208.372 126.157C208.634 126.419 208.989 126.566 209.359 126.566C215.05 126.468 217.408 127.961 220.867 129.286C224.132 128.393 220.937 125.868 219.068 125.52C221.356 124.431 223.099 122.227 225.108 120.832C233.576 125.771 229.837 150.462 243.522 134.782C244.19 137.346 244.098 140.049 243.256 142.561C242.413 145.073 240.858 147.285 238.779 148.928L238.849 148.9ZM240.007 151.801C243.815 148.188 246.619 144.143 246.745 138.926C249.914 138.956 253.064 139.425 256.105 140.321C253.385 146.975 246.284 151.16 239.937 151.829L240.007 151.801ZM269.734 140.362C268.869 145.147 261.518 138.186 258.407 138.116C254.627 136.838 250.666 136.174 246.675 136.149C245.029 125.101 237.398 139.414 235.738 136.694C234.943 134.824 230.618 114.206 222.918 118.921C221.216 119.967 218.733 123.804 216.989 122.702C207.601 105.125 213.014 104.204 195.646 116.285C191.279 114.108 189.536 107.915 185.518 105.125C178.306 105.711 173.34 113.983 169.573 119.786C163.142 113.453 142.106 110.021 153.043 99.7121C156.558 96.4059 162.487 92.8766 169.001 93.2532C169.576 93.3583 170.17 93.2801 170.698 93.0299C171.226 92.7796 171.662 92.3697 171.945 91.8582C172.6 87.0036 163.575 84.6182 162.835 80.4332C169.573 73.235 187.555 75.8297 196.469 84.7856C195.688 87.3245 191.67 91.6071 194.167 93.7275C194.341 93.7866 194.525 93.8107 194.708 93.7985C194.892 93.7863 195.071 93.7379 195.236 93.6563C195.4 93.5746 195.547 93.4612 195.668 93.3226C195.788 93.184 195.881 93.023 195.939 92.8487C201.296 79.7078 212.414 64.3209 220.072 71.7842C226.503 77.2805 234.022 90.3516 234.692 100.312C234.692 100.682 234.839 101.037 235.1 101.298C235.362 101.56 235.717 101.707 236.087 101.707C239.756 99.8655 235.264 91.4816 234.19 87.7569C247.889 85.6226 256.831 86.6409 257.64 90.5469C257.57 93.7833 249.604 99.0843 247.163 102.363C246.909 102.668 246.727 103.028 246.631 103.413C246.536 103.799 246.528 104.202 246.61 104.591C246.692 104.98 246.861 105.346 247.104 105.66C247.347 105.975 247.658 106.231 248.014 106.408C264.908 114.653 270.278 129.384 269.734 140.362Z" fill="#1D1D1D"/>
<path d="M180.734 117.987C187.709 116.675 188.727 122.339 191.462 121.042C192.857 116.62 184.905 114.806 180.525 115.211C180.174 115.261 179.856 115.442 179.634 115.718C179.412 115.994 179.304 116.344 179.33 116.697C179.357 117.05 179.517 117.379 179.777 117.619C180.038 117.859 180.38 117.99 180.734 117.987Z" fill="#1D1D1D"/>
<path d="M58.4208 155.414C71.2408 155.33 69.7342 136.707 57.4164 138.506C46.6888 139.72 48.2931 155.47 58.4208 155.414ZM59.8158 141.227C68.1858 142.719 64.6425 155.037 56.398 152.247C58.3801 148.89 59.5505 145.116 59.8158 141.227Z" fill="#1D1D1D"/>
<path d="M90.338 147.534C102.893 147.534 101.805 129.315 89.7102 131.101C79.7778 132.356 80.4056 147.59 90.338 147.534ZM91.733 133.765C99.7961 134.783 97.0619 146.585 88.8593 144.521C90.4552 141.139 91.4197 137.494 91.7051 133.765H91.733Z" fill="#1D1D1D"/>
<path d="M71.2407 152.374C69.9991 153.686 72.0916 155.611 73.3053 154.258C74.1998 153.294 75.4315 152.713 76.7437 152.635C78.056 152.557 79.3477 152.988 80.35 153.839C80.4861 153.964 80.6454 154.06 80.8189 154.123C80.9924 154.185 81.1766 154.213 81.3609 154.204C81.5451 154.194 81.7257 154.149 81.8922 154.07C82.0587 153.99 82.2078 153.879 82.3309 153.741C83.4469 148.454 73.0402 149.291 71.2407 152.374Z" fill="#1D1D1D"/>
<path d="M71.449 147.533C73.96 147.24 71.9372 144.129 73.5554 142.651C75.6061 140.419 79.6237 142.748 78.424 145.524C78.3333 145.883 78.389 146.263 78.5786 146.581C78.7683 146.899 79.0765 147.129 79.4353 147.219C79.7942 147.31 80.1744 147.254 80.4923 147.064C80.8101 146.875 81.0396 146.567 81.1303 146.208C83.0972 140.363 75.1318 136.443 71.3653 140.879C70.2493 142.316 68.659 146.975 71.449 147.533Z" fill="#1D1D1D"/>
<path d="M75.37 165.333C80.2385 165.458 79.8619 160.394 81.773 157.562C82.8332 156.851 83.6423 156 83.0146 155.344C79.555 155.191 74.6446 157.339 69.9574 156.042C68.5624 155.791 68.0602 156.474 68.102 157.437C68.2694 160.701 71.45 165.333 75.37 165.333ZM72.58 157.841C73.5983 157.841 75.37 157.841 77.3788 157.674C80.4059 157.939 76.6115 162.11 74.9375 161.51C72.5381 161.608 70.8223 158.595 72.5381 157.841H72.58Z" fill="#1D1D1D"/>
</svg>
