<svg width="258" height="259" viewBox="0 0 258 259" fill="none" xmlns="http://www.w3.org/2000/svg">
<path d="M130.765 136.52L131.668 121.814C131.668 121.814 128.572 123.362 120.445 123.878C112.447 124.394 109.48 121.943 109.48 121.943C109.48 121.943 110.254 139.874 111.931 145.034C113.608 150.194 117.865 151.355 121.735 151.742C121.864 146.195 127.669 145.421 127.669 145.421C127.669 138.197 130.765 136.52 130.765 136.52ZM137.377 146.402C139.957 144.854 135.313 141.242 133.765 142.532C132.475 143.819 135.442 147.56 137.377 146.399V146.402ZM155.179 151.691C158.017 152.207 160.339 148.724 159.307 148.079C156.469 146.27 152.857 151.172 155.179 151.688V151.691ZM149.503 145.241C152.083 144.467 148.213 139.565 146.536 140.597C144.859 141.629 147.052 146.012 149.503 145.238V145.241ZM160.081 141.887C157.888 142.403 161.371 146.144 163.564 144.338C165.37 142.787 162.274 141.497 160.081 141.884V141.887ZM150.922 136.469C149.245 138.146 151.954 139.436 154.147 139.178C157.372 138.788 152.857 134.531 150.922 136.466V136.469ZM148.865 48.0768C149.357 46.7183 150.258 45.5462 151.445 44.7228C166.151 40.7238 213.623 50.1408 235.037 63.0408C235.037 63.0408 236.327 63.9438 236.327 59.1708C228.329 44.5938 207.044 27.9528 186.146 25.1148C184.34 24.8568 180.341 26.4048 178.793 27.4368C175.819 29.4795 173.129 31.9088 170.795 34.6608C170.795 34.6608 140.867 29.7588 139.577 36.8538C138.416 44.9808 148.865 48.0768 148.865 48.0768ZM246.33 130.672C244.137 118.933 240.525 101.518 226.722 92.7456C221.304 98.1636 210.597 104.227 184.926 102.55C159.126 100.873 149.838 83.3286 149.838 83.3286C149.838 83.3286 140.292 87.9726 133.971 102.163C136.938 103.711 137.325 103.84 138.357 106.033C138.357 106.033 140.421 109.645 139.905 112.354C138.873 118.288 136.164 119.578 136.164 119.578L134.616 133.639C134.616 133.639 142.227 131.704 144.033 131.575C143.775 126.415 144.291 116.611 144.807 115.708C145.839 114.031 146.226 115.708 147.645 117.514C147.387 114.16 146.484 107.581 147.387 106.291C148.29 104.872 152.418 105.646 153.45 106.807L150.612 106.033C150.612 106.033 151.644 122.545 151.644 122.674L152.805 123.319L154.998 118.804L153.321 106.678L153.45 106.807C154.224 107.968 154.869 110.548 156.03 110.806C157.32 111.064 157.32 104.098 158.997 103.324C160.328 103.039 161.712 103.128 162.996 103.582L160.674 114.547L164.544 113.773L166.221 105.001L166.479 105.259C166.995 106.42 165.447 112.87 165.447 112.87L167.64 113.515C167.64 113.515 170.349 106.42 171.768 105.646C172.671 105.13 174.606 105.775 176.154 106.678L167.64 122.674L166.221 127.576L170.607 125.383C170.607 125.383 178.089 109.774 178.347 109.258C178.176 110.52 177.688 111.718 176.928 112.741C176.928 112.741 182.346 113.386 182.862 114.547L180.024 113.773L176.541 121.513C176.541 121.513 180.669 121.255 180.669 121.126C180.669 121.091 180.683 121.059 180.707 121.034C180.731 121.01 180.764 120.997 180.798 120.997C181.314 121.384 181.701 121.384 181.83 122.029C182.346 123.835 181.701 130.672 181.701 130.672C181.701 130.672 200.406 137.767 206.082 144.217C206.082 144.217 206.856 143.056 205.953 136.993C216.663 132.478 233.175 129.124 246.333 130.672H246.33ZM142.408 150.398C142.408 152.462 149.374 152.72 148.213 150.14C147.181 147.431 142.408 148.205 142.408 150.398ZM138.667 136.079C136.603 137.24 141.247 139.949 142.666 139.433C144.085 138.917 141.763 134.273 138.667 136.079ZM170.272 115.052L167.305 113.375C167.305 113.375 163.177 127.565 163.177 127.823H166.66L170.272 115.052ZM167.879 148.721C165.686 151.946 161.171 155.816 151.625 156.719C141.821 157.751 132.791 153.752 129.824 148.85C126.47 151.43 128.921 156.074 130.856 157.88C136.145 162.911 143.885 164.072 152.141 163.427C162.461 162.653 166.976 159.041 168.782 157.106C172.136 153.752 171.878 147.947 167.879 148.721Z" fill="#49B38D" fill-opacity="0.2"/>
<path d="M19.381 117.284C19.1844 117.212 18.9752 117.181 18.7662 117.192C18.5572 117.204 18.3528 117.259 18.1655 117.352C17.9783 117.446 17.8122 117.577 17.6773 117.737C17.5425 117.897 17.4418 118.083 17.3815 118.283C16.7195 120.099 16.51 122.049 16.7712 123.964C17.0324 125.879 17.7564 127.701 18.8804 129.273C20.1292 130.771 22.6279 128.774 21.254 127.275C18.3812 124.028 21.8784 118.158 19.381 117.284Z" fill="#1D1D1D"/>
<path d="M59.5977 172.232C59.5471 173.236 59.2744 174.216 58.7993 175.101C58.3241 175.987 57.6584 176.756 56.85 177.352C56.5792 177.545 56.3757 177.817 56.2684 178.132C56.1611 178.446 56.1555 178.786 56.2522 179.104C56.349 179.422 56.5432 179.701 56.8075 179.902C57.0717 180.104 57.3926 180.217 57.7246 180.225C59.3487 180.096 60.4723 178.352 61.2218 177.229C63.9695 178.977 70.8375 174.73 73.46 171.608C74.959 169.86 73.0847 167.238 71.587 169.111C70.4861 170.529 69.1123 171.713 67.5465 172.593C65.9808 173.472 64.2549 174.029 62.4705 174.231C63.3387 170.984 60.0931 168.986 59.5977 172.232Z" fill="#1D1D1D"/>
<path d="M32.8669 111.789C30.3695 110.791 28.121 114.787 27.6218 118.908C27.1213 122.778 27.3715 124.403 28.121 126.276C28.2204 126.64 28.4605 126.95 28.7884 127.137C29.1163 127.325 29.5052 127.374 29.8696 127.275C30.234 127.175 30.5439 126.935 30.7313 126.607C30.9187 126.279 30.9681 125.891 30.8687 125.526C30.8687 125.397 29.2446 117.909 32.8669 114.037C33.4913 113.413 33.7403 112.164 32.8669 111.789Z" fill="#1D1D1D"/>
<path d="M59.7179 154C71.0828 154 63.0899 161.368 66.7109 163.492C69.2084 164.99 71.2066 157.746 68.5853 153.499C67.085 151.002 58.8432 149.379 58.2189 152.501C57.9699 153.251 58.8432 154 59.7179 154Z" fill="#1D1D1D"/>
<path d="M13.3866 166.863C12.9894 166.897 12.6219 167.087 12.3645 167.392C12.107 167.696 11.9806 168.09 12.0127 168.487C12.512 181.35 22.6281 183.099 23.8807 193.214C23.8807 194.089 24.6302 194.963 25.3797 194.838C29.002 194.089 24.7554 185.346 21.6387 182.224C17.7243 178.632 15.3523 173.664 15.0197 168.362C15.0135 168.156 14.966 167.952 14.88 167.765C14.7941 167.577 14.6714 167.408 14.5192 167.268C14.367 167.129 14.1884 167.021 13.9938 166.951C13.7993 166.882 13.5929 166.852 13.3866 166.863Z" fill="#1D1D1D"/>
<path d="M54.5968 155C44.856 144.384 27.4964 162.492 36.987 172.358C46.6039 182.473 66.0855 167.363 54.5968 155ZM50.0998 170.36C39.3606 177.728 31.867 163.367 42.9816 156.123C45.127 160.921 47.7641 165.482 50.8506 169.736C50.6326 169.98 50.3796 170.19 50.0998 170.36Z" fill="#1D1D1D"/>
<path d="M174.984 72.9505C180.354 72.3261 170.363 64.9525 180.354 63.3335C181.229 63.2045 181.977 62.3351 181.603 61.5856C180.603 58.8379 174.36 60.5871 172.487 65.3266C171.488 68.3297 172.737 73.1995 174.984 72.9505Z" fill="#1D1D1D"/>
<path d="M179.855 90.6845C189.721 91.3088 194.342 81.6919 191.093 78.8165C189.721 77.6916 185.975 79.4408 177.607 78.5662C172.737 78.067 170.739 77.4413 169.609 79.1906C167.741 81.9421 172.858 90.3091 179.855 90.6845ZM175.234 80.8186C179.134 81.2135 183.06 81.2967 186.973 81.0675C188.472 80.9385 187.598 84.3145 186.349 84.6898C182.35 85.9386 173.361 86.937 172.737 81.5668C172.987 80.5683 174.485 80.6934 175.234 80.8186Z" fill="#1D1D1D"/>
<path d="M47.1034 204.077C66.336 201.704 78.6994 191.838 84.0697 180.47C90.0986 183.693 95.2854 188.289 99.2117 193.886C103.138 199.483 105.694 205.924 106.673 212.69C96.5582 224.054 86.6922 218.809 73.7032 211.815C71.9553 210.817 71.3309 213.937 73.204 214.812C73.9535 215.188 76.3271 216.685 80.1984 218.553C69.8319 229.045 68.2091 242.16 69.3327 248.401C69.7081 250.775 72.3307 250.149 72.3307 248.53C72.3307 245.533 71.3309 231.546 83.3202 220.056C96.433 227.925 107.048 217.684 114.916 209.066C119.537 204.696 114.542 197.456 118.786 193.83C120.035 192.832 123.532 192.957 126.404 197.202C126.571 197.462 126.789 197.686 127.045 197.859C127.301 198.032 127.59 198.151 127.893 198.21C128.197 198.268 128.509 198.264 128.811 198.198C129.113 198.132 129.399 198.006 129.651 197.827C134.396 194.331 140.765 190.458 149.388 195.578C147.514 197.576 144.516 200.7 143.144 201.823C142.019 202.698 142.269 204.446 143.643 204.446C145.516 203.946 148.763 200.576 151.885 197.453C154.469 199.603 156.557 202.287 158.005 205.322C156.152 207.47 154.056 209.398 151.761 211.066C150.511 211.941 151.135 213.438 152.634 213.438C154.382 213.064 156.382 211.44 159.379 208.569C164.248 223.429 154.259 235.787 138.522 247.032C137.774 247.532 136.899 248.531 137.274 249.281C137.774 250.029 138.772 250.53 140.396 249.41C153.883 240.043 159.875 233.049 162.375 224.932C164.067 218.306 163.63 211.314 161.127 204.95C156.007 190.963 140.396 185.094 128.532 194.96C122.288 186.218 112.172 190.214 113.796 200.829C114.67 205.325 112.297 207.449 109.425 210.195C108.157 203.3 105.326 196.788 101.147 191.159C96.9688 185.53 91.555 180.935 85.3223 177.726C89.5676 164.987 86.0717 153.873 79.2025 141.384C86.3207 138.262 86.0717 119.529 79.8269 117.031C77.5797 116.158 76.8302 120.779 74.2076 120.403C72.7086 120.274 71.2097 118.405 69.5868 115.783C62.8427 104.543 58.2219 99.548 47.9819 97.0506C36.3719 94.1778 22.7547 96.6765 10.8918 104.419C9.14259 105.543 10.8918 108.16 12.5147 107.042C22.8003 100.21 35.3769 97.739 47.4827 100.172C65.0912 103.913 67.7138 132.268 79.2025 121.028C81.8251 123.65 82.9435 135.64 77.4545 138.761C68.4581 122.154 51.8493 113.537 40.8585 118.405C42.5436 114.993 44.9773 112.005 47.978 109.664C49.477 108.165 47.2286 106.167 44.606 108.414C40.4844 111.786 34.6149 120.282 34.9903 129.895C20.8777 135.266 16.2569 150.126 22.0013 164.737C26.7472 179.6 44.1068 186.844 43.8591 202.829C42.9845 225.059 27.0001 235.048 19.5065 238.422C18.3665 238.941 17.1995 239.399 16.0106 239.794C14.3864 240.419 15.7603 242.916 18.2577 242.293C25.9977 240.419 47.4788 224.808 47.1034 204.077ZM73.9535 147.63C67.0842 150.378 61.465 140.137 66.0845 135.267C68.3972 139.577 71.0275 143.71 73.9535 147.63ZM41.8583 187.093C35.1142 176.853 24.5 169.985 23.3752 155.746C23.1262 151.625 22.7508 147.504 24.9993 142.758C26.218 140.318 27.9205 138.152 30.0032 136.392C32.0859 134.631 34.5052 133.313 37.1137 132.518C37.4236 132.4 37.6938 132.197 37.8927 131.931C38.0916 131.666 38.2111 131.349 38.2373 131.019C38.1298 128.104 38.5096 125.192 39.3608 122.402C43.1018 119.904 54.3468 119.654 59.3429 123.4C55.0963 124.774 53.0981 128.396 56.2199 128.647C57.844 128.776 59.4668 126.273 62.8388 125.774C64.3458 127.052 65.7642 128.431 67.0842 129.902C53.7224 138.02 66.9552 158.875 79.0735 148.26C90.8125 171.867 80.8227 195.59 46.9796 201.085C46.3882 196.085 44.6343 191.293 41.8583 187.093Z" fill="#1D1D1D"/>
<path d="M35.1133 150.753C38.6105 151.252 36.9864 146.507 43.3564 143.635C43.5492 143.549 43.7225 143.425 43.8657 143.27C44.0088 143.116 44.1189 142.933 44.1891 142.734C44.2592 142.536 44.2881 142.325 44.2738 142.114C44.2595 141.904 44.2024 141.699 44.1059 141.511C40.8577 137.765 31.3672 150.254 35.1133 150.753Z" fill="#1D1D1D"/>
<path d="M105.424 102.298C103.781 102.992 102.387 104.167 101.425 105.67C81.8212 92.557 66.585 87.317 45.1052 73.3244C43.4824 72.2008 40.8585 73.5733 42.6078 74.6982C64.2127 88.8108 80.4473 95.3047 100.304 108.541C99.9829 110.109 99.9832 111.725 100.305 113.292C100.627 114.859 101.264 116.344 102.177 117.658C95.4346 120.405 91.313 128.273 94.0607 135.017C89.9392 138.887 87.4417 144.633 90.4384 149.878C94.5599 156.872 137.265 184.347 148.26 187.719C157.625 190.59 171.363 184.721 174.86 180.85C187.849 203.204 217.447 190.716 233.555 177.109C240.923 180.356 249.164 186.475 252.163 186.475C257.408 186.346 238.8 176.858 236.177 174.865C245.169 166.867 251.657 157.132 252.787 148.515C254.285 131.156 251.163 113.047 240.919 97.9363C246.539 96.1883 248.659 90.0673 245.29 82.5762C249.031 76.957 245.041 71.0862 239.669 65.3418C239.817 65.0609 239.943 64.7689 240.045 64.4685C253.033 67.8393 246.414 54.1021 244.292 48.1074C251.909 39.3664 249.286 37.3682 238.546 33.871C242.043 27.252 241.544 24.5056 238.047 22.132C234.549 19.8848 226.308 21.3825 223.685 20.0087C221.188 18.76 220.063 11.3928 216.317 10.642C210.447 9.26942 202.205 17.012 197.959 9.39455C195.211 4.52351 187.968 2.77556 184.221 8.89403C181.973 12.635 178.602 12.764 175.355 10.393C167.987 5.39813 167.112 12.7653 164.115 17.261C157.379 19.374 153.38 21.4973 157.508 29.7391C156.853 30.2887 156.228 30.8726 155.635 31.4884C146.893 30.864 135.154 28.3666 132.531 35.8589C131.406 39.1058 132.402 45.5997 146.519 51.7194C144.769 58.8377 144.145 70.7018 147.393 79.8182C140.274 82.0654 133.03 89.31 128.41 96.178C125.842 95.5169 123.18 95.3056 120.541 95.5536C119.412 82.3157 113.542 79.448 104.176 73.6998C98.8053 70.4528 95.6835 80.1923 99.68 82.94C108.547 88.8108 109.671 88.6844 110.795 97.8021C108.579 98.7034 106.701 100.275 105.424 102.298ZM97.0574 126.65C98.3055 123.861 100.589 121.667 103.426 120.531C103.676 122.654 104.176 125.277 104.675 128.023C101.8 129.345 99.0778 130.979 96.5581 132.894C96.0414 130.814 96.2167 128.622 97.0574 126.65ZM173.611 177.852C171.114 180.1 161.248 187.968 149.01 184.721C137.52 181.724 96.1828 154.25 93.1861 148.255C89.3161 140.637 96.8071 135.767 105.3 131.021C106.673 141.136 106.424 152.501 121.534 152.501C121.909 156.872 124.532 158.62 126.905 160.499C123.408 181.23 171.114 182.229 170.614 163.497C174.11 161.998 175.235 161.123 175.983 159C176.386 157.877 176.47 156.665 176.228 155.497C175.986 154.329 175.426 153.251 174.611 152.381C180.98 151.133 179.481 149.634 183.228 132.275C192.219 136.274 201.086 140.892 202.836 143.139C200.816 145.891 198.321 148.259 195.468 150.134C194.344 150.883 193.219 152.007 191.845 151.758C186.351 150.883 181.356 151.507 178.983 155.628C177.734 157.876 177.609 160.749 179.732 164.245C173.362 169.361 172.859 174.481 173.611 177.852ZM170.115 127.649C170.74 129.148 170.115 137.39 171.489 137.765C174.11 138.514 173.861 129.397 173.362 125.277C176.11 123.903 179.232 122.654 180.98 122.779C181.479 126.4 177.858 145.882 176.858 148.13C176.484 149.005 173.987 149.379 171.863 149.629C171.69 149.06 171.401 148.534 171.014 148.082C170.627 147.631 170.15 147.265 169.615 147.007C171.363 136.266 158.625 130.021 146.512 129.523C145.763 124.652 145.763 118.783 146.512 117.284C151.757 124.402 161.378 134.144 170.115 127.649ZM149.639 107.543C150.013 106.919 153.26 107.168 153.509 107.543C154.133 111.788 155.008 118.158 153.509 120.781C152.385 119.407 151.261 118.033 150.262 116.782C149.9 113.715 149.692 110.631 149.639 107.543ZM164.001 112.289C159.505 111.788 159.63 120.158 157.507 124.776C157.008 124.402 156.383 123.903 155.884 123.529C156.882 119.659 160.129 107.418 160.629 105.044C167.867 104.296 164.745 107.918 163.995 112.289H164.001ZM167.497 116.159C166.623 118.406 164.999 124.275 164.376 126.524C163.074 126.631 161.763 126.504 160.506 126.149C161.256 123.527 162.755 117.782 163.129 115.534C163.62 115.037 167.117 115.66 167.491 116.16L167.497 116.159ZM169.87 114.035C170.994 111.288 172.368 109.041 173.242 107.166C173.741 106.792 177.241 108.54 177.112 109.415C174.74 113.414 172.116 123.027 167.871 125.4C168.989 120.905 171.363 116.284 169.865 114.037L169.87 114.035ZM178.112 114.535C179.255 114.749 180.381 115.041 181.484 115.409C180.804 116.825 180.22 118.286 179.736 119.78C178.142 119.961 176.584 120.382 175.115 121.029C176.11 119.032 177.233 116.534 178.107 114.536L178.112 114.535ZM164.5 163.365C159.63 167.861 151.512 167.985 145.021 166.237C141.151 165.113 137.903 167.361 134.155 164.988C131.534 163.49 131.408 160.866 129.66 158.869C126.287 155.372 120.919 151.875 128.161 147.001C128.275 147.397 128.443 147.775 128.661 148.125C121.542 168.356 166.751 168.98 171.747 153.869C177.357 159.494 167.742 160.494 164.495 163.366L164.5 163.365ZM167.248 165.363C165.623 176.228 134.902 176.478 131.281 166.861C136.401 171.482 141.397 168.36 144.518 169.358C154.13 172.483 161.747 170.485 167.242 165.362L167.248 165.363ZM130.532 151C139.648 160.866 161.003 159.619 168.122 149.877C172.237 164.115 129.403 165.491 130.526 151.002L130.532 151ZM162.627 151C157.008 156.871 129.033 156.372 130.906 142.259C134.147 123.903 180.105 136.141 162.622 151.002L162.627 151ZM134.528 132.768C130.406 135.39 127.534 139.261 127.534 143.882C126.246 144.357 125.077 145.105 124.107 146.076C123.137 147.046 122.389 148.215 121.914 149.503C116.42 149.374 110.925 147.129 110.175 143.258C108.802 136.14 107.927 129.021 106.803 121.903C114.047 126.898 127.909 126.649 135.526 122.653C135.397 125.151 134.897 128.774 134.523 132.769L134.528 132.768ZM232.562 174.229C220.448 184.095 206.212 191.963 190.851 189.591C193.223 188.466 195.847 186.968 196.221 186.718C197.969 185.719 196.47 183.972 194.223 184.72C191.849 185.594 188.103 187.467 186.225 187.967C183.978 186.89 181.98 185.359 180.355 183.471C183.352 182.471 187.099 180.848 187.599 180.598C189.472 179.725 188.847 177.476 186.849 177.977C184.602 178.6 180.729 180.099 178.357 180.723C173.861 175.229 177.858 168.111 184.726 164.364C190.221 161.367 186.849 159.369 182.228 162.24C181.355 160.492 180.604 157.995 182.978 155.871C187.849 152.001 191.969 157.245 196.341 153.498C206.456 144.882 207.705 144.507 207.33 137.513C224.689 130.646 242.048 129.147 249.541 133.514C251.789 150.379 247.043 161.742 232.556 174.231L232.562 174.229ZM243.551 78.5695C243.68 80.1923 241.054 81.1921 241.928 82.94C245.425 89.0598 243.427 96.6785 237.929 94.3049C236.111 92.3619 234.103 90.6048 231.936 89.0598C236.931 82.1918 236.555 75.9469 234.807 73.0741C232.31 68.9526 227.689 69.4531 224.816 67.9541C222.569 66.8305 221.075 64.7072 221.695 58.5874C231.812 62.46 242.422 68.4533 243.551 78.5695ZM160.254 68.5785C169.121 68.0792 172.618 61.21 169.87 54.4671C167.622 49.0969 155.258 46.8484 150.512 48.9717C150.795 48.0606 151.172 47.1816 151.637 46.3492C157.008 43.8517 167.622 45.3507 171.743 49.3471C173.367 50.97 174.616 48.8479 173.992 47.4741C173.59 46.6167 172.875 45.946 171.993 45.5997C177.704 46.2433 183.374 47.2023 188.978 48.4725C185.855 48.8479 184.107 51.4692 187.105 52.3425C187.978 52.3425 192.225 50.094 197.72 50.5933C204.818 52.413 211.785 54.7079 218.575 57.4625C217.452 72.1995 223.32 69.951 230.064 73.3295C230.682 73.623 231.208 74.0814 231.583 74.6543C231.957 75.2272 232.166 75.8923 232.187 76.5765C233.311 97.1829 199.343 106.174 173.621 99.4301C171.006 98.6372 168.459 97.6351 166.004 96.4334C154.394 91.0631 147.521 80.5664 148.145 65.3367C150.883 67.829 156.128 68.8287 160.249 68.5785H160.254ZM156.632 51.3453C161.253 51.7194 166.373 53.9666 167.122 55.7159C169.371 62.2097 164.875 67.0795 157.881 65.3315C157.706 60.6509 157.287 55.9825 156.627 51.3453H156.632ZM237.433 62.2097C227.692 52.3438 203.089 43.7266 195.096 40.9789C183.52 37.1147 171.663 34.1504 159.63 32.1127C174.741 16.0032 219.449 34.1109 237.433 57.963C237.927 58.7125 237.802 60.5869 237.427 62.2097H237.433ZM159.13 22.8647C160.629 20.8665 164.875 20.6176 165.999 19.7429C167.622 18.4942 169.74 12.3745 170.994 12.0029C173.741 11.1296 176.988 16.2496 180.985 15.2512C185.606 14.8758 186.48 8.88113 189.852 8.13164C195.346 6.88292 196.096 15.0009 201.84 16.1296C206.336 17.0043 212.706 11.8843 216.078 13.8825C217.076 14.3817 217.826 16.3799 218.699 17.8815C220.073 20.6292 220.823 22.0017 222.698 22.8763C226.321 24.5005 234.437 22.5022 237.06 25.2486C240.93 29.3766 230.317 34.9894 239.933 37.6133C251.298 40.61 240.557 42.6082 241.306 48.4777C241.806 52.1 249.304 62.8392 240.932 61.3403C233.689 33.742 171.621 13.6348 160.132 27.8712C158.875 25.2435 158.875 23.2453 159.124 22.8712L159.13 22.8647ZM135.277 37.2263C136.526 26.9863 209.581 45.4681 221.697 55.3353C208.709 49.8399 151.637 31.7283 147.393 48.8415C138.768 44.8502 134.773 41.2292 135.272 37.2327L135.277 37.2263ZM148.39 82.9336C160.503 112.531 213.829 108.91 229.815 91.5508C241.054 98.9193 247.173 115.029 249.165 129.891C240.174 126.143 223.689 127.893 206.954 134.387C206.329 130.517 205.58 126.143 204.707 125.02C203.458 123.396 202.209 125.894 202.708 127.768C203.654 131.96 204.28 136.219 204.581 140.506C200.711 137.009 191.719 132.508 183.601 128.896C184.474 121.156 183.851 120.898 182.851 120.155C185.1 115.534 186.223 113.036 179.356 112.037C181.977 108.038 176.109 103.545 172.735 103.919C169.364 104.544 169.239 109.29 167.241 111.917C167.49 109.67 170.238 104.425 167.37 103.425C160.376 100.928 157.754 101.677 157.005 108.921C157.254 105.549 155.881 104.674 150.635 104.674C144.141 104.674 147.014 109.545 146.765 113.915C141.021 113.416 142.766 125.28 143.269 129.524C141.392 129.774 139.548 130.235 137.774 130.897C138.273 125.777 138.772 121.53 138.897 120.033C146.895 112.414 140.645 101.799 131.28 97.179C135.646 91.3083 142.265 84.8131 148.385 82.94L148.39 82.9336ZM109.303 86.5559C105.807 83.4328 99.0633 80.5613 100.811 77.1892C101.187 76.5648 101.686 75.9405 102.435 76.3146C106.806 78.3128 115.673 83.6831 117.171 90.4272C118.121 94.6037 118.541 98.8832 118.421 103.165C118.292 104.664 116.047 105.288 114.551 103.79C113.292 102.547 114.042 90.929 109.296 86.5623L109.303 86.5559ZM108.055 104.164C108.701 102.749 109.862 101.632 111.302 101.043C112.176 107.286 112.801 108.286 118.296 107.785C121.917 107.411 121.167 102.166 120.919 98.9193C128.161 98.669 136.786 101.043 133.906 108.41C130.152 115.66 105.549 114.786 108.047 104.171L108.055 104.164ZM137.642 106.418C149.252 125.402 102.175 129.397 103.175 109.666C103.389 108.509 103.906 107.429 104.675 106.538C104.426 118.783 138.02 119.531 137.642 106.418Z" fill="#1D1D1D"/>
<path d="M201.211 75.45C210.452 75.45 213.325 70.2049 212.701 64.8346C212.401 62.7798 211.561 60.8414 210.266 59.2177C208.971 57.594 207.269 56.3431 205.332 55.5931C201.215 53.5597 196.47 53.2018 192.094 54.5946C190.21 55.278 188.591 56.5409 187.469 58.2019C186.347 59.863 185.78 61.8368 185.849 63.84C185.849 70.2036 191.844 75.45 201.211 75.45ZM208.951 61.8367C211.572 68.831 206.577 73.5757 199.085 71.9528C199.044 67.0163 198.626 62.0901 197.835 57.2172C202.71 57.7151 208.334 60.0874 208.955 61.8354L208.951 61.8367Z" fill="#1D1D1D"/>
</svg>
