<svg width="24" height="25" viewBox="0 0 24 25" fill="none" xmlns="http://www.w3.org/2000/svg">
<path d="M12.0025 8.01099C11.2069 8.01099 10.4438 8.32706 9.88119 8.88967C9.31858 9.45227 9.00251 10.2153 9.00251 11.011C9.00251 11.8066 9.31858 12.5697 9.88119 13.1323C10.4438 13.6949 11.2069 14.011 12.0025 14.011C12.7982 14.011 13.5612 13.6949 14.1238 13.1323C14.6864 12.5697 15.0025 11.8066 15.0025 11.011C15.0025 10.2153 14.6864 9.45227 14.1238 8.88967C13.5612 8.32706 12.7982 8.01099 12.0025 8.01099ZM10.2525 11.011C10.2525 10.5469 10.4369 10.1017 10.7651 9.77355C11.0933 9.44536 11.5384 9.26099 12.0025 9.26099C12.4666 9.26099 12.9118 9.44536 13.2399 9.77355C13.5681 10.1017 13.7525 10.5469 13.7525 11.011C13.7525 11.4751 13.5681 11.9202 13.2399 12.2484C12.9118 12.5766 12.4666 12.761 12.0025 12.761C11.5384 12.761 11.0933 12.5766 10.7651 12.2484C10.4369 11.9202 10.2525 11.4751 10.2525 11.011ZM18.5 16.261L13.456 21.616C13.269 21.8145 13.0434 21.9728 12.793 22.0809C12.5426 22.189 12.2728 22.2448 12 22.2448C11.7273 22.2448 11.4574 22.189 11.207 22.0809C10.9566 21.9728 10.731 21.8145 10.544 21.616L5.50001 16.261H5.51901L5.51051 16.251L5.50001 16.2385C4.20536 14.7073 3.49657 12.7661 3.50001 10.761C3.50001 6.06649 7.30551 2.26099 12 2.26099C16.6945 2.26099 20.5 6.06649 20.5 10.761C20.5035 12.7661 19.7947 14.7073 18.5 16.2385L18.4895 16.251L18.481 16.261H18.5ZM17.5285 15.4515C18.6426 14.1429 19.253 12.4796 19.25 10.761C19.25 6.75699 16.004 3.51099 12 3.51099C7.99601 3.51099 4.75001 6.75699 4.75001 10.761C4.74689 12.4796 5.35735 14.1429 6.47151 15.4515L6.62551 15.633L11.454 20.7585C11.5241 20.8329 11.6087 20.8923 11.7026 20.9328C11.7965 20.9734 11.8977 20.9943 12 20.9943C12.1023 20.9943 12.2035 20.9734 12.2974 20.9328C12.3913 20.8923 12.4759 20.8329 12.546 20.7585L17.3745 15.633L17.5285 15.4515Z" fill="#707070"/>
</svg>
