<svg width="28" height="27" viewBox="0 0 28 27" fill="none" xmlns="http://www.w3.org/2000/svg">
<path d="M23.0422 11.9531C23.1499 11.9531 23.243 12.0273 23.261 12.1313C23.3665 12.7135 23.4237 13.3399 23.4237 13.9453C23.4271 16.3967 22.5107 18.7625 20.8512 20.587C20.8126 20.6292 20.759 20.6548 20.7016 20.6585C20.6442 20.6623 20.5876 20.6438 20.5438 20.607L17.8007 18.316C17.7771 18.2959 17.7578 18.2713 17.7441 18.2437C17.7303 18.2161 17.7223 18.1861 17.7207 18.1554C17.719 18.1247 17.7236 18.0939 17.7343 18.065C17.745 18.0361 17.7615 18.0097 17.7828 17.9872C18.3352 17.3941 18.7603 16.6969 19.0326 15.9375H13.551C13.4915 15.9375 13.4344 15.9142 13.3923 15.8727C13.3502 15.8312 13.3266 15.7749 13.3266 15.7161V12.1745C13.3266 12.0527 13.4276 11.9531 13.551 11.9531H23.0422ZM16.101 19.2578C16.1412 19.2371 16.1868 19.2285 16.2319 19.2333C16.277 19.238 16.3197 19.2558 16.3546 19.2844L19.2356 21.6894C19.2613 21.7105 19.2818 21.7371 19.2955 21.7672C19.3092 21.7973 19.3158 21.8301 19.3147 21.8631C19.3136 21.8961 19.3049 21.9284 19.2893 21.9575C19.2736 21.9867 19.2514 22.0119 19.2244 22.0314C17.5077 23.2535 15.4436 23.9096 13.3266 23.9062C11.6437 23.9071 9.98741 23.4927 8.5084 22.7007C7.02939 21.9087 5.77468 20.7644 4.8585 19.3718C4.82848 19.3258 4.81713 19.2703 4.82669 19.2163C4.83625 19.1624 4.86603 19.114 4.9101 19.0807L7.76534 16.9092C7.79159 16.8899 7.8217 16.8762 7.85368 16.8692C7.88567 16.8621 7.9188 16.8618 7.95091 16.8683C7.98302 16.8748 8.01337 16.8879 8.03998 16.9068C8.06658 16.9257 8.08883 16.9499 8.10527 16.9779C8.89022 18.294 10.1562 19.2636 11.6432 19.6876C13.1302 20.1116 14.7254 19.9578 16.101 19.2578ZM7.35809 14.9702C7.36526 15.0107 7.36112 15.0525 7.3461 15.0909C7.33108 15.1293 7.30575 15.1629 7.27282 15.1882L4.20443 17.5202C4.17735 17.5411 4.14566 17.5555 4.11191 17.5622C4.07816 17.5689 4.04329 17.5677 4.01012 17.5586C3.97694 17.5496 3.94637 17.533 3.92089 17.5101C3.8954 17.4873 3.8757 17.4589 3.86337 17.4272C3.44272 16.3133 3.22803 15.134 3.2295 13.9453C3.2295 12.6703 3.47295 11.4507 3.9161 10.3295C3.92855 10.2986 3.94802 10.2709 3.97303 10.2486C3.99804 10.2263 4.02791 10.21 4.06033 10.2009C4.09275 10.1918 4.12686 10.1902 4.16001 10.1962C4.19317 10.2022 4.22449 10.2156 4.25155 10.2354L7.31658 12.4534C7.3895 12.5054 7.42316 12.5973 7.40408 12.6836C7.23985 13.4358 7.22497 14.2121 7.35809 14.9702ZM7.88201 10.8032C7.98972 10.8807 8.14117 10.8497 8.21297 10.739C8.75978 9.88968 9.51523 9.19042 10.4092 8.70612C11.3032 8.22181 12.3067 7.96818 13.3266 7.96875C14.7369 7.96829 16.1026 8.45591 17.1859 9.34668C17.2296 9.38323 17.2856 9.40235 17.3429 9.40031C17.4002 9.39826 17.4546 9.37519 17.4956 9.33561L20.0378 6.82656C20.0591 6.80567 20.0758 6.78071 20.087 6.75321C20.0982 6.72571 20.1036 6.69625 20.1029 6.66663C20.1022 6.63701 20.0953 6.60784 20.0828 6.58092C20.0702 6.55399 20.0522 6.52987 20.0299 6.51003C18.1869 4.88263 15.8 3.98331 13.3266 3.98438C11.6658 3.98347 10.0305 4.38708 8.56578 5.15937C7.10107 5.93166 5.8523 7.04874 4.9303 8.41146C4.8993 8.45827 4.88772 8.51505 4.89796 8.57004C4.90819 8.62504 4.93945 8.67406 4.98527 8.70697L7.88201 10.8032Z" fill="#E6E6E6"/>
<path d="M23.6288 11.3544H22.8256V11.3136H13.8504V15.2488H19.4863C18.6641 17.5396 16.4547 19.184 13.8504 19.184C10.546 19.184 7.8669 16.541 7.8669 13.2812C7.8669 10.0214 10.546 7.37842 13.8504 7.37842C15.3756 7.37842 16.7633 7.94607 17.8199 8.8733L20.6406 6.09063C18.8595 4.4531 16.4771 3.44324 13.8504 3.44324C8.34309 3.44324 3.87793 7.84819 3.87793 13.2812C3.87793 18.7142 8.34309 23.1192 13.8504 23.1192C19.3576 23.1192 23.8228 18.7142 23.8228 13.2812C23.8228 12.6216 23.754 11.9777 23.6288 11.3544Z" fill="#FFC107"/>
<path d="M5.02832 8.70212L8.30476 11.0726C9.19131 8.90724 11.3384 7.37842 13.8509 7.37842C15.3762 7.37842 16.7639 7.94607 17.8205 8.8733L20.6412 6.09063C18.8601 4.4531 16.4777 3.44324 13.8509 3.44324C10.0205 3.44324 6.6987 5.5766 5.02832 8.70212Z" fill="#FF3D00"/>
<path d="M13.8506 23.1191C16.4265 23.1191 18.767 22.1467 20.5366 20.5652L17.4502 17.9886C16.4153 18.765 15.1508 19.185 13.8506 19.184C11.2568 19.184 9.05437 17.5523 8.22467 15.2753L4.97266 17.7471C6.62309 20.9331 9.97483 23.1191 13.8506 23.1191Z" fill="#4CAF50"/>
<path d="M23.6291 11.3544H22.8258V11.3136H13.8506V15.2488H19.4865C19.0932 16.339 18.3847 17.2917 17.4486 17.9891L17.4501 17.9882L20.5366 20.5647C20.3182 20.7605 23.823 18.2002 23.823 13.2812C23.823 12.6216 23.7542 11.9777 23.6291 11.3544Z" fill="#1976D2"/>
</svg>
