<svg width="84" height="61" viewBox="0 0 84 61" fill="none" xmlns="http://www.w3.org/2000/svg">
<path d="M3.05078 27.5027H80.95" stroke="black" stroke-width="4.5" stroke-linecap="round"/>
<path d="M30.9404 30.3879L30.9404 36.0434C30.9404 37.7003 32.2836 39.0434 33.9404 39.0434L42.2355 39.0434L50.06 39.0434C51.7168 39.0434 53.06 37.7003 53.06 36.0434L53.06 30.3879" stroke="black" stroke-width="4.5" stroke-linecap="round" stroke-linejoin="round"/>
<path d="M6.41116 25.5178L12.6065 6.23512C13.2709 4.16741 15.194 2.76502 17.3659 2.76458L42.4354 2.75949L66.589 2.75459C68.7331 2.75415 70.6387 4.12075 71.3261 6.15165L78.0648 26.0621" stroke="black" stroke-width="4.5" stroke-linecap="round" stroke-linejoin="round"/>
<path d="M6.41729 29.4262L13.2098 54.5391C13.7994 56.7191 15.777 58.2332 18.0353 58.2336L42.9229 58.2387L66.7688 58.2435C69.059 58.244 71.0566 56.6885 71.6176 54.4682L78.0653 28.9453" stroke="black" stroke-width="4.5" stroke-linecap="round" stroke-linejoin="round"/>
</svg>
