<svg width="24" height="25" viewBox="0 0 24 25" fill="none" xmlns="http://www.w3.org/2000/svg">
<path fill-rule="evenodd" clip-rule="evenodd" d="M6.57 11.681C7.18323 11.955 7.68677 12.4268 8 13.021L10.64 17.831C10.8376 18.1888 10.9376 18.5923 10.93 19.001L10.88 21.001C10.8784 21.4138 10.6575 21.7946 10.3 22.001C10.1368 22.0874 9.95468 22.132 9.77 22.131C9.54744 22.1301 9.32945 22.0678 9.14 21.951L7.46 20.951C7.11098 20.7355 6.82475 20.432 6.63 20.071L4 15.261C3.66864 14.6466 3.55581 13.9379 3.68 13.251C3.75635 12.6025 4.1246 12.0244 4.68 11.681C5.27514 11.3846 5.97485 11.3846 6.57 11.681ZM8.23 19.621L9.39 20.321L9.38 18.941C9.37661 18.7943 9.33894 18.6505 9.27 18.521L6.64 13.711C6.48697 13.4082 6.23704 13.1653 5.93 13.021C5.82744 12.9698 5.71462 12.9424 5.6 12.941C5.51638 12.9418 5.43414 12.9623 5.36 13.001C5.19422 13.1121 5.08762 13.2922 5.07 13.491C5.0243 13.8373 5.09463 14.1889 5.27 14.491L7.9 19.261C7.97088 19.4117 8.08599 19.5373 8.23 19.621Z" fill="#707070"/>
<path fill-rule="evenodd" clip-rule="evenodd" d="M13.2199 2.61099L20.2199 9.61099C20.3682 9.75877 20.4479 9.9618 20.4399 10.171V17.171C20.4399 18.4308 19.9395 19.639 19.0487 20.5297C18.1579 21.4205 16.9497 21.921 15.6899 21.921H12.8199C12.4057 21.921 12.0699 21.5852 12.0699 21.171C12.0699 20.7568 12.4057 20.421 12.8199 20.421H15.6899C17.4826 20.4155 18.9344 18.9636 18.9399 17.171V10.921H14.6899C13.1734 10.9155 11.9454 9.6875 11.9399 8.17099V3.92099H9.6899C7.89498 3.92099 6.4399 5.37607 6.4399 7.17099V9.82099C6.4399 10.2352 6.10412 10.571 5.6899 10.571C5.27569 10.571 4.9399 10.2352 4.9399 9.82099V7.17099C4.93192 5.90602 5.42883 4.69012 6.3205 3.79282C7.21216 2.89553 8.42491 2.39097 9.6899 2.39099H12.6899C12.8888 2.39117 13.0794 2.4703 13.2199 2.61099ZM13.4399 4.95099V8.17099C13.4399 8.86135 13.9995 9.42099 14.6899 9.42099H17.9099L13.4399 4.95099Z" fill="#707070"/>
</svg>
