<svg width="15" height="19" viewBox="0 0 15 19" fill="none" xmlns="http://www.w3.org/2000/svg">
<mask id="mask0_717_2768" style="mask-type:luminance" maskUnits="userSpaceOnUse" x="0" y="11" width="15" height="8">
<path fill-rule="evenodd" clip-rule="evenodd" d="M0 11.409H14.4621V18.1416H0V11.409Z" fill="white"/>
</mask>
<g mask="url(#mask0_717_2768)">
<path fill-rule="evenodd" clip-rule="evenodd" d="M7.23189 12.7785C3.34153 12.7785 1.36942 13.4468 1.36942 14.7661C1.36942 16.0973 3.34153 16.772 7.23189 16.772C11.1213 16.772 13.0925 16.1037 13.0925 14.7844C13.0925 13.4532 11.1213 12.7785 7.23189 12.7785ZM7.23199 18.1416C5.44339 18.1416 0 18.1416 0 14.7662C0 11.7569 4.12774 11.409 7.23199 11.409C9.02059 11.409 14.4622 11.409 14.4622 14.7844C14.4622 17.7937 10.3353 18.1416 7.23199 18.1416Z" fill="#7B7B7B"/>
</g>
<mask id="mask1_717_2768" style="mask-type:luminance" maskUnits="userSpaceOnUse" x="2" y="0" width="11" height="10">
<path fill-rule="evenodd" clip-rule="evenodd" d="M2.38281 0H12.0791V9.69494H2.38281V0Z" fill="white"/>
</mask>
<g mask="url(#mask1_717_2768)">
<path fill-rule="evenodd" clip-rule="evenodd" d="M7.23184 1.30342C5.27707 1.30342 3.6866 2.89297 3.6866 4.84774C3.68021 6.79611 5.25881 8.38476 7.20536 8.39206L7.23184 9.04395V8.39206C9.18569 8.39206 10.7752 6.80159 10.7752 4.84774C10.7752 2.89297 9.18569 1.30342 7.23184 1.30342ZM7.23186 9.695H7.20265C4.53482 9.68678 2.37371 7.51107 2.38284 4.84506C2.38284 2.1745 4.55764 -0.000305176 7.23186 -0.000305176C9.90517 -0.000305176 12.0791 2.1745 12.0791 4.8478C12.0791 7.52111 9.90517 9.695 7.23186 9.695Z" fill="#7B7B7B"/>
</g>
</svg>
